<svg xmlns="http://www.w3.org/2000/svg" xmlns:xlink="http://www.w3.org/1999/xlink" version="1.1" width="84.10067509659699" height="86.94937657364777" viewBox="0.021662180381162688 0.12596220250640683 84.10067509659699 86.94937657364777">
  <!-- Exported by Scratch - http://scratch.mit.edu/ -->
  <g id="ID0.1929579214192927">
    <path id="ID0.29204709688201547" fill="#FF4FA3" d="M 15.635 16.3841 L 74.635 16.3841 C 74.635 16.3841 77.635 15.554 77.635 22.5505 C 77.635 29.547 77.635 30.6142 77.635 30.6142 C 77.635 30.6142 81.635 30.4956 81.635 34.7647 C 81.635 39.0337 81.635 49.5887 81.635 49.5887 C 81.635 49.5887 82.26 54.629 76.322 54.629 C 74.759 54.629 76.259 76.6269 76.259 76.6269 C 76.259 76.6269 76.988 79.823 75.175 79.823 C 73.362 79.823 73.884 86.588 73.884 86.588 L 5.634 86.588 L 5.634 80.8959 L 4.259 79.9473 C 4.259 79.9473 4.342 39.6238 5.509 26.109 C 5.822 22.5002 0.509 27.6506 0.509 22.9072 C 0.509 18.1638 3.759 20.8913 4.884 20.8913 C 6.009 20.8913 1.009 18.2824 1.009 14.8434 C 1.009 11.4045 2.884 12.5903 4.509 12.5903 C 6.134 12.5903 7.259 16.978 9.259 16.978 C 11.259 16.978 5.384 10.4283 5.384 7.7284 C 5.384 2.8085 7.634 0.6133 7.634 0.6133 C 11.009 0.6133 8.929 2.3446 11.134 7.254 C 13.296 12.0657 13.385 10.4549 15.635 16.3841 Z " stroke-width="0.9746756459133948"/>
    <path id="ID0.19896423257887363" fill="#FFA4DE" d="M 10.135 75.0843 C 8.466 72.4945 12.845 25.4961 15.635 16.3841 C 16.135 14.7514 74.635 16.3841 74.635 16.3841 C 74.635 16.3841 77.635 15.554 77.635 22.5505 C 77.635 29.547 77.635 30.6142 77.635 30.6142 C 77.635 30.6142 81.635 30.4956 81.635 34.7647 C 81.635 39.0337 81.635 49.5887 81.635 49.5887 C 81.635 49.5887 82.26 54.629 76.322 54.629 C 74.759 54.629 76.154 74.979 76.154 74.979 " stroke-width="0.9746756459133948"/>
    <path id="ID0.4092942951247096" fill="#CE85B7" opacity="0.3" d="M 77.635 46.7427 C 77.635 57.0595 72.262 58.1268 65.635 58.1268 L 33.635 58.1268 C 27.008 58.1268 21.635 53.0295 21.635 46.7427 L 21.635 43.8957 C 21.635 37.6088 27.008 32.5116 33.635 32.5116 L 65.635 32.5116 C 72.262 32.5116 77.635 34.0532 77.635 43.8957 L 77.635 46.7427 Z " stroke-width="0.9746756459133948"/>
    <path id="ID0.713367042131722" d="M 83.635 43.8957 C 83.635 54.2135 78.262 55.2807 71.635 55.2807 L 39.635 55.2807 C 33.008 55.2807 27.635 50.1835 27.635 43.8957 L 27.635 41.0497 C 27.635 34.7628 33.008 29.6656 39.635 29.6656 L 71.635 29.6656 C 78.262 29.6656 83.635 31.2071 83.635 41.0497 L 83.635 43.8957 Z " stroke-width="0.9746756459133948" fill="undefined"/>
    <path id="ID0.5091009368188679" fill="#00CCFF" d="M 47.385 37.7293 C 48.76 37.7293 57.51 43.0656 57.51 44.2514 C 57.51 45.4373 56.135 48.4028 52.447 48.4028 C 48.761 48.4028 45.134 44.37 45.134 41.2868 C 45.134 38.2036 47.385 37.7293 47.385 37.7293 Z " stroke-width="0.9746756459133948"/>
    <path id="ID0.19790314231067896" fill="#00CCFF" d="M 71.135 37.7293 C 73.385 37.7293 73.385 40.3382 73.385 41.4054 C 73.385 42.4727 71.635 48.4028 66.385 48.4028 C 61.135 48.4028 60.135 45.6754 60.135 44.8444 C 60.135 44.0143 69.803 37.7293 71.135 37.7293 Z " stroke-width="0.9746756459133948"/>
  </g>
</svg>