<svg xmlns="http://www.w3.org/2000/svg" xmlns:xlink="http://www.w3.org/1999/xlink" version="1.1" width="77.93618661165237" height="76.30675393342972" viewBox="0.21448573470115662 -0.042983442544937134 77.93618661165237 76.30675393342972">
  <!-- Exported by Scratch - http://scratch.mit.edu/ -->
  <g id="ID0.990735765080899">
    <path id="ID0.23450724128633738" fill="#272525" d="M 49.3071 16.6127 C 49.4109 15.1749 50.0753 9.0978 51.0544 4.973 L 56.4585 2.6426 C 59.4104 5.6014 60.5936 12.4133 55.4957 18.342 C 57.5302 19.0716 60.0603 22.7309 59.1395 26.8077 C 57.3784 34.5867 55.0018 41.2965 58.5702 49.481 C 61.4167 56.0082 69.7324 59.3357 74.7351 64.924 C 80.8491 71.7556 76.7174 74.4975 70.0659 74.6227 C 53.4362 74.9382 41.5247 67.0889 36.1524 56.6307 C 29.5601 43.7958 32.8069 18.7115 49.3071 16.6127 L 49.3071 16.6127 Z " stroke-width="0.8573749661445618"/>
    <path id="ID0.006342989392578602" fill="#FFF63B" d="M 54.2139 4.119 C 55.8986 5.1479 57.8894 7.5176 57.7308 9.5445 C 57.2704 10.0889 53.077 18.8127 54.5388 19.562 C 58.2461 21.4646 52.7452 35.805 54.8029 44.9241 C 57.6605 57.5781 68.6058 60.4503 72.9664 67.6325 C 75.3507 71.5593 71.009 72.6027 69.6972 72.5804 C 49.7624 72.2769 41.7073 61.4654 38.451 54.7719 C 34.1736 45.9855 36.7997 35.2383 40.4693 26.722 C 41.1998 25.0278 43.1855 21.7989 44.6199 20.554 C 46.8413 18.6258 47.3977 18.4698 50.2948 18.2528 C 50.7707 18.2177 54.2139 4.119 54.2139 4.119 L 54.2139 4.119 Z " stroke-width="0.8573749661445618"/>
    <path id="ID0.5267163878306746" fill="#272525" d="M 50.7655 21.3445 C 50.9576 20.7298 51.8149 20.9793 51.664 21.4783 C 46.4486 38.8761 48.6538 55.2177 60.5645 63.8746 C 63.0903 65.7128 67.9842 67.822 69.1554 68.2112 C 70.3265 68.6005 69.3826 69.3584 68.3297 68.982 C 67.276 68.6065 66.4306 68.3047 64.9268 67.6196 C 51.9881 61.7406 41.1886 52.2709 50.7655 21.3445 L 50.7655 21.3445 Z " stroke-width="0.8573749661445618"/>
    <path id="ID0.8533078269101679" fill="#272525" d="M 47.2246 13.6462 C 48.1454 11.6579 54.045 0.1494 55.8746 0.3894 C 60.9168 1.0513 63.4444 13.0323 51.9144 17.3989 L 51.2456 16.8716 C 53.4139 16.683 55.6714 22.1222 52.8232 26.4485 C 48.394 33.1814 43.765 38.7064 44.1972 47.5682 C 44.5427 54.633 51.1685 60.4854 53.8752 67.377 C 57.183 75.799 52.3216 77.0216 46.0277 74.9613 C 30.2888 69.8051 21.896 58.5255 20.5799 46.938 C 18.9663 32.7159 30.9704 10.2107 47.2246 13.6462 L 47.2246 13.6462 Z " stroke-width="0.8573749661445618"/>
    <path id="ID0.19106093607842922" fill="#FFF63B" d="M 56.2964 3.5146 C 58.2092 4.3419 59.5648 6.2504 57.6631 9.7648 C 56.4756 11.9614 49.981 16.9453 51.087 18.1302 C 53.8924 21.1336 43.6039 32.8076 42.2844 42.0527 C 40.4522 54.8799 49.7109 61.1662 51.2448 69.3447 C 52.0842 73.8159 47.6327 73.3718 46.4049 72.9234 C 27.7819 66.1029 24.0729 53.304 23.3998 45.946 C 22.5167 36.2869 28.8193 27.0486 35.3079 20.2497 C 36.5983 18.8976 39.6162 16.5141 41.409 15.8145 C 44.186 14.7307 44.096 12.9894 46.8953 13.7345 C 47.3583 13.8571 56.2964 3.5146 56.2964 3.5146 L 56.2964 3.5146 Z " stroke-width="0.8573749661445618"/>
    <path id="ID0.6718006273731589" fill="#272525" d="M 46.9056 18.5709 C 47.3043 18.0556 48.0211 18.5709 47.7038 18.991 C 36.594 33.6299 32.8318 49.7082 40.934 61.7483 C 42.653 64.3024 46.4975 67.8888 47.4569 68.6373 C 48.418 69.3858 46.9648 70.5047 46.1091 69.8051 C 45.2543 69.108 44.0008 68.1649 42.8322 67.0298 C 32.7726 57.2634 26.8688 44.4919 46.9056 18.5709 L 46.9056 18.5709 Z " stroke-width="0.8573749661445618"/>
    <path id="ID0.33484075916931033" fill="#272525" d="M 43.4144 9.2607 C 45.202 7.9206 56.0478 0.4126 57.5448 1.4474 C 61.6722 4.2999 57.6605 16.3632 45.34 15.0325 L 45.3846 13.9179 C 47.3926 14.7265 46.7204 20.5446 42.0855 23.0841 C 34.8758 27.0366 29.1802 30.455 25.2226 38.4749 C 22.0666 44.8692 23.9494 52.3926 22.9643 59.6966 C 21.7597 68.621 14.6306 66.4913 10.0831 61.8392 C -1.2883 50.2063 -0.9359 37.4906 3.5799 26.668 C 9.1211 13.3847 30.7458 -1.0861 43.4144 9.2607 L 43.4144 9.2607 Z " stroke-width="0.8573749661445618"/>
    <path id="ID0.7287357193417847" fill="#FFF63B" d="M 56.3882 4.3951 C 56.7783 6.271 56.2124 9.2881 54.5328 10.5305 C 52.9844 11.6759 47.7707 13.8108 44.7433 14.0397 C 45.749 17.9536 30.8315 24.5503 25.1369 32.1174 C 17.2353 42.6194 22.3298 52.3361 19.6788 60.2488 C 18.2298 64.5742 14.5166 62.1796 13.6532 61.2313 C 0.5499 46.8317 3.5456 33.8605 6.5558 27.0615 C 10.5075 18.1354 20.5979 12.8154 29.6578 9.7297 C 31.46 9.1158 35.2925 8.3699 37.2181 8.5585 C 40.2001 8.85 40.6931 9.1415 42.8005 11.0595 C 43.1495 11.3767 56.0589 2.8149 56.3882 4.3951 L 56.3882 4.3951 Z " stroke-width="0.8573749661445618"/>
    <path id="ID0.7101516453549266" fill="#272525" d="M 40.7205 13.4661 C 41.325 13.19 41.7031 13.9677 41.2186 14.1949 C 24.2375 22.1222 13.0393 34.627 14.2954 48.9014 C 14.562 51.9288 16.1996 56.8279 16.6814 57.921 C 17.1633 59.0142 15.9441 58.8504 15.53 57.849 C 15.1167 56.8476 14.7866 56.0451 14.3099 54.5138 C 10.2134 41.3651 10.3291 27.3393 40.7205 13.4661 L 40.7205 13.4661 Z " stroke-width="0.8573749661445618"/>
  </g>
</svg>