<svg xmlns="http://www.w3.org/2000/svg" xmlns:xlink="http://www.w3.org/1999/xlink" version="1.1" id="Layer_2_1_" x="0px" y="0px" width="41.14799880981445" height="23.03099822998047" viewBox="54.42599868774414 66.625 41.14799880981445 23.03099822998047" enable-background="new 0 0 150 150" xml:space="preserve">
  <g>
    <rect x="54.926" y="67.125" fill="#904110" width="40.148" height="22.031" stroke-width="1"/>
    <rect x="54.926" y="71.832" fill="#FEBA30" width="35.199" height="12.1" stroke-width="1"/>
    <rect x="60.15" y="74.857" fill="#CD5D18" width="29.975" height="9.075" stroke-width="1"/>
    <rect x="70.601" y="73.476" fill="#A44A13" width="10.449" height="7.431" stroke-width="1"/>
    <rect x="68.95" y="71.832" fill="#FFFF7F" width="10.45" height="5.775" stroke-width="1"/>
    <polygon fill="#FFFF00" points="78.025,79.257 70.601,79.257 70.601,71.832 79.4,71.832 79.4,77.863 78.014,77.873 " stroke-width="1"/>
    <polygon points="72.25,71.832 76.375,71.832 76.375,73.208 75,73.208 75,75.956 73.625,75.956 73.671,73.208 72.25,73.208 " stroke-width="1"/>
    <rect x="58.5" y="68.75" fill="#5E2A0B" width="31.625" height="3.082" stroke-width="1"/>
    <rect x="90.125" y="68.75" fill="#421D07" width="4.949" height="3.082" stroke-width="1"/>
    <rect x="90.125" y="71.832" fill="#FEBA30" width="4.949" height="3.025" stroke-width="1"/>
  </g>
</svg>