<svg xmlns="http://www.w3.org/2000/svg" xmlns:xlink="http://www.w3.org/1999/xlink" version="1.1" width="84.10067509659699" height="86.94937657364777" viewBox="0.021662180381162688 0.12596220250640683 84.10067509659699 86.94937657364777">
  <!-- Exported by Scratch - http://scratch.mit.edu/ -->
  <g id="ID0.9360646232962608">
    <path id="ID0.14311734773218632" fill="#FF4FA3" d="M 73.01 7.254 C 75.214 2.3446 73.135 0.6133 76.51 0.6133 C 76.51 0.6133 78.76 2.8085 78.76 7.7284 C 78.76 10.4283 72.885 16.978 74.885 16.978 C 76.885 16.978 78.01 12.5903 79.635 12.5903 C 81.26 12.5903 83.135 11.4045 83.135 14.8434 C 83.135 18.2824 78.135 20.8913 79.26 20.8913 C 80.385 20.8913 83.635 18.1638 83.635 22.9072 C 83.635 27.6506 78.322 22.5002 78.635 26.109 C 79.802 39.6238 79.885 79.9473 79.885 79.9473 L 78.51 80.8959 L 78.51 86.588 L 10.26 86.588 C 10.26 86.588 10.782 79.823 8.969 79.823 C 7.156 79.823 7.885 76.6269 7.885 76.6269 C 7.885 76.6269 9.385 54.629 7.822 54.629 C 1.884 54.629 2.509 49.5887 2.509 49.5887 C 2.509 49.5887 2.509 39.0337 2.509 34.7647 C 2.509 30.4956 6.509 30.6142 6.509 30.6142 C 6.509 30.6142 6.509 29.547 6.509 22.5505 C 6.509 15.554 9.509 16.3841 9.509 16.3841 L 68.509 16.3841 C 70.759 10.4549 70.848 12.0657 73.01 7.254 Z " stroke-width="0.9746756459133948"/>
    <path id="ID0.48586778063327074" fill="#FFA4DE" d="M 7.989 74.979 C 7.989 74.979 9.385 54.629 7.821 54.629 C 1.883 54.629 2.508 49.5887 2.508 49.5887 C 2.508 49.5887 2.508 39.0337 2.508 34.7647 C 2.508 30.4956 6.508 30.6142 6.508 30.6142 C 6.508 30.6142 6.508 29.547 6.508 22.5505 C 6.508 15.554 9.508 16.3841 9.508 16.3841 C 9.508 16.3841 68.008 14.7514 68.508 16.3841 C 71.297 25.4961 75.677 72.4945 74.008 75.0843 " stroke-width="0.9746756459133948"/>
    <path id="ID0.11627007275819778" fill="#CE85B7" opacity="0.3" d="M 6.509 43.8957 C 6.509 34.0532 11.882 32.5116 18.509 32.5116 L 50.509 32.5116 C 57.136 32.5116 62.509 37.6088 62.509 43.8957 L 62.509 46.7427 C 62.509 53.0295 57.136 58.1268 50.509 58.1268 L 18.509 58.1268 C 11.882 58.1268 6.509 57.0595 6.509 46.7427 L 6.509 43.8957 Z " stroke-width="0.9746756459133948"/>
    <path id="ID0.8696292019449174" d="M 0.509 41.0497 C 0.509 31.2071 5.882 29.6656 12.509 29.6656 L 44.509 29.6656 C 51.136 29.6656 56.509 34.7628 56.509 41.0497 L 56.509 43.8957 C 56.509 50.1835 51.136 55.2807 44.509 55.2807 L 12.509 55.2807 C 5.882 55.2807 0.509 54.2135 0.509 43.8957 L 0.509 41.0497 Z " stroke-width="0.9746756459133948" fill="undefined"/>
    <path id="ID0.2592000993900001" fill="#00CCFF" d="M 39.01 41.2868 C 39.01 44.37 35.383 48.4028 31.697 48.4028 C 28.009 48.4028 26.634 45.4373 26.634 44.2514 C 26.634 43.0656 35.384 37.7293 36.759 37.7293 C 36.759 37.7293 39.01 38.2036 39.01 41.2868 Z " stroke-width="0.9746756459133948"/>
    <path id="ID0.03983337618410587" fill="#00CCFF" d="M 24.009 44.8444 C 24.009 45.6754 23.009 48.4028 17.759 48.4028 C 12.509 48.4028 10.759 42.4727 10.759 41.4054 C 10.759 40.3382 10.759 37.7293 13.009 37.7293 C 14.341 37.7293 24.009 44.0143 24.009 44.8444 Z " stroke-width="0.9746756459133948"/>
  </g>
</svg>