<svg xmlns="http://www.w3.org/2000/svg" xmlns:xlink="http://www.w3.org/1999/xlink" version="1.1" width="84.1259994506836" height="91.6259994506836" viewBox="0.009000003337860107 -0.4569999985396862 84.1259994506836 91.6259994506836">
  <!-- Exported by Scratch - http://scratch.mit.edu/ -->
  <path id="ID0.29204709688201547" fill="#FF4FA3" d="M 15.635 16.667 L 74.635 16.667 C 74.635 16.667 77.635 15.792 77.635 23.167 C 77.635 30.542 77.635 31.667 77.635 31.667 C 77.635 31.667 81.635 31.542 81.635 36.042 C 81.635 40.542 81.635 51.668 81.635 51.668 C 81.635 51.668 82.26 56.981 76.322 56.981 C 74.759 56.981 76.259 80.169 76.259 80.169 C 76.259 80.169 76.988 83.538 75.175 83.538 C 73.362 83.538 73.884 90.669 73.884 90.669 L 5.634 90.669 L 5.634 84.669 L 4.259 83.669 C 4.259 83.669 4.342 41.164 5.509 26.918 C 5.822 23.114 0.509 28.543 0.509 23.543 C 0.509 18.543 3.759 21.418 4.884 21.418 C 6.009 21.418 1.009 18.668 1.009 15.043 C 1.009 11.418 2.884 12.668 4.509 12.668 C 6.134 12.668 7.259 17.293 9.259 17.293 C 11.259 17.293 5.384 10.389 5.384 7.543 C 5.384 2.357 7.634 0.043 7.634 0.043 C 11.009 0.043 8.929 1.868 11.134 7.043 C 13.296 12.115 13.385 10.417 15.635 16.667 Z " stroke-width="1"/>
  <path id="ID0.19896423257887363" fill="#FFA4DE" d="M 10.135 78.543 C 8.466 75.813 12.845 26.272 15.635 16.667 C 16.135 14.946 74.635 16.667 74.635 16.667 C 74.635 16.667 77.635 15.792 77.635 23.167 C 77.635 30.542 77.635 31.667 77.635 31.667 C 77.635 31.667 81.635 31.542 81.635 36.042 C 81.635 40.542 81.635 51.668 81.635 51.668 C 81.635 51.668 82.26 56.981 76.322 56.981 C 74.759 56.981 76.154 78.432 76.154 78.432 " stroke-width="1"/>
  <path id="ID0.4092942951247096" fill="#CE85B7" opacity="0.3" d="M 77.635 48.668 C 77.635 59.543 72.262 60.668 65.635 60.668 L 33.635 60.668 C 27.008 60.668 21.635 55.295 21.635 48.668 L 21.635 45.667 C 21.635 39.04 27.008 33.667 33.635 33.667 L 65.635 33.667 C 72.262 33.667 77.635 35.292 77.635 45.667 L 77.635 48.668 Z " stroke-width="1"/>
  <path id="ID0.713367042131722" d="M 83.635 45.667 C 83.635 56.543 78.262 57.668 71.635 57.668 L 39.635 57.668 C 33.008 57.668 27.635 52.295 27.635 45.667 L 27.635 42.667 C 27.635 36.04 33.008 30.667 39.635 30.667 L 71.635 30.667 C 78.262 30.667 83.635 32.292 83.635 42.667 L 83.635 45.667 Z " stroke-width="1" fill="undefined"/>
  <path id="ID0.5091009368188679" fill="#00CCFF" d="M 47.385 39.167 C 48.76 39.167 57.51 44.792 57.51 46.042 C 57.51 47.292 56.135 50.418 52.447 50.418 C 48.761 50.418 45.134 46.167 45.134 42.917 C 45.134 39.667 47.385 39.167 47.385 39.167 Z " stroke-width="1"/>
  <path id="ID0.19790314231067896" fill="#00CCFF" d="M 71.135 39.167 C 73.385 39.167 73.385 41.917 73.385 43.042 C 73.385 44.167 71.635 50.418 66.385 50.418 C 61.135 50.418 60.135 47.543 60.135 46.667 C 60.135 45.792 69.803 39.167 71.135 39.167 Z " stroke-width="1"/>
</svg>