<svg xmlns="http://www.w3.org/2000/svg" xmlns:xlink="http://www.w3.org/1999/xlink" version="1.1" id="Layer_1" x="0px" y="0px" width="41.163002014160156" height="102.31900024414062" viewBox="4.336999893188477 7.75 41.163002014160156 102.31900024414062" enable-background="new 0 0 50 110" xml:space="preserve">
  <g>
    <path fill="#666666" d="M19.097,101.604l1.531,7.965h10.313l1.3-8.123C27.861,103.477,23.482,100.579,19.097,101.604z" stroke-width="1"/>
    <path fill="#7B4C21" d="M15.224,77.438l3.763,21.194l0.11,0.673c4.385-1.021,8.764,2.086,13.149,0.055l3.385-21.922H15.224z" stroke-width="1"/>
    <polygon fill="#7B4C21" points="41.023,75.427 9.362,75.427 5.374,63.38 44.779,63.38 " stroke-width="1"/>
    <rect x="4.837" y="57.354" fill="#7B4C21" width="40.163" height="4.021" stroke-width="1"/>
    <polygon fill="#FF3C04" points="5.856,54 43.328,54 24.592,8.25 " stroke-width="1"/>
    <polygon fill="#FF9004" points="13.553,54 35.631,54 24.592,27.045 " stroke-width="1"/>
    <polygon fill="#EAFF28" points="19.517,54 29.666,54 24.592,41.612 " stroke-width="1"/>
  </g>
</svg>