<?xml version="1.0" encoding="utf-8"?><!-- Generator: Adobe Illustrator 16.0.0, SVG Export Plug-In . SVG Version: 6.00 Build 0)  --><!DOCTYPE svg PUBLIC "-//W3C//DTD SVG 1.1//EN" "http://www.w3.org/Graphics/SVG/1.1/DTD/svg11.dtd"><svg xmlns="http://www.w3.org/2000/svg" xmlns:xlink="http://www.w3.org/1999/xlink" version="1.1" id="Layer_1" x="0px" y="0px" width="191.10000610351562" height="98.10599517822266" viewBox="4.699997901916504 2.447000026702881 191.10000610351562 98.10599517822266" enable-background="new 0 0 200 100" xml:space="preserve">
<g>
	<g>
		<path fill="#693600" d="M33.118,5.947c2.402,0,5.441,0.032,9.118,0.095c0.659,0.042,0.989,0.273,0.989,0.693    c0.127,1.595,0.722,5.371,1.785,11.329c0,1.699-0.765,2.549-2.295,2.549h-0.223c-0.893,0-3.656-0.137-8.29-0.409    c-0.085,0.021-0.127,0.115-0.127,0.283c0.659,12.735,1.105,20.729,1.339,23.98v0.786c-0.212,1.218-0.754,1.826-1.626,1.826    l-16.451,0.756c-1.403-0.021-2.062-0.954-1.977-2.8c0.702-6.525,1.052-13.7,1.052-21.527v-2.548h-0.988    c-3.869,0.335-6.462,0.504-7.779,0.504c-1.042,0-1.69-0.609-1.945-1.826v-0.284c0-0.399,0.144-1.369,0.431-2.911    c0.287-1.542,0.717-3.887,1.291-7.034c0-1.845,0.723-2.77,2.168-2.77C9.653,6.64,17.496,6.409,33.118,5.947z" stroke-width="1"/>
		<path fill="#693600" d="M65.478,13.5h0.733c3.252,0,6.418,0.787,9.5,2.361c4.91,3.357,7.375,7.752,7.396,13.186    c0,3.042-0.33,5.843-0.988,8.402c-0.893,3-2.635,5.56-5.229,7.679c-2.593,2.098-6.004,3.314-10.234,3.65h-4.017    c-2.891-0.378-5.346-1.165-7.365-2.36c-3.656-2.182-6.186-5.204-7.588-9.064c-0.489-1.448-0.733-2.874-0.733-4.28    c-0.021-0.251-0.032-0.503-0.032-0.754c0-3.022,0.499-5.739,1.498-8.151c0.638-1.448,1.499-2.832,2.583-4.153    c2.317-2.582,4.602-4.259,6.855-5.037C60.387,13.993,62.928,13.5,65.478,13.5z M64.075,23.477    c-1.509,1.007-2.264,3.158-2.264,6.451c0,1.406,0.095,3.063,0.287,4.972c0.34,1.658,1.222,2.592,2.646,2.802    c0.936,0,1.669-0.378,2.201-1.133c1.02-1.384,1.625-3.693,1.817-6.924c0-1.721-0.117-3.063-0.351-4.028    c-0.553-1.72-1.563-2.581-3.029-2.581C65,23.036,64.564,23.183,64.075,23.477z" stroke-width="1"/>
		<path fill="#693600" d="M97.455,14.13c1.148-0.083,1.828,0.336,2.041,1.258l0.701,15.861c0.828-3.797,1.552-7.579,2.168-11.344    c0.617-3.767,1.328-5.649,2.137-5.649l5.037-0.126c1.042,0.042,1.626,0.524,1.753,1.446l2.199,16.618    c0.384-2.896,0.606-8.497,0.671-16.806c0-0.649,0.658-1.059,1.977-1.227c1.615,0,3.581,0.106,5.898,0.314l5.228,0.315    c1.275,0.21,1.69,1.06,1.244,2.549c-3.23,10.469-5.25,18.537-6.058,24.201c-0.659,3.987-1.732,5.979-3.221,5.979l-9.596,0.032    c-1.467,0-2.2-0.882-2.2-2.644l-0.988-12.682c-0.106,1.174-0.755,5.958-1.944,14.349c-0.298,0.672-0.776,1.007-1.436,1.007    l-9.851,0.253c-1.254,0-1.999-0.713-2.232-2.14c-0.51-3-2.476-12.419-5.898-28.261c-0.297-1.489,0.181-2.297,1.435-2.423    l3.603-0.221C90.824,14.75,93.268,14.529,97.455,14.13z" stroke-width="1"/>
		<path fill="#693600" d="M156.437,14.476h0.479c0.872,0,1.308,0.651,1.308,1.952c0.128,4.028,0.19,6.441,0.19,7.239    c-0.063,0.608-0.85,0.912-2.359,0.912h-2.996c-6.101,0-9.149,0.063-9.149,0.188v2.487c0,0.083,0.052,0.125,0.159,0.125h9.532    c0.808,0,1.212,0.295,1.212,0.882l0.159,4.375c0,0.65-0.479,0.975-1.436,0.975l-9.468-0.031l0.063,3.493    c0.915,0,4.953-0.042,12.116-0.126c1.169,0.021,1.753,0.42,1.753,1.195c-0.021,4.197-0.031,7.009-0.031,8.434    c-0.085,0.713-0.521,1.071-1.308,1.071l-16.515,0.157l-5.866,0.032h-1.307c-1.085-0.063-1.626-0.63-1.626-1.699V46.01    c0.382-4.553,0.573-8.297,0.573-11.234v-0.567c-0.596-9.713-0.925-15.735-0.988-18.063c0.085-1.153,0.701-1.731,1.849-1.731    h10.712C151.612,14.456,155.927,14.476,156.437,14.476z" stroke-width="1"/>
		<path fill="#693600" d="M174.992,13.815c4.549,0.167,7.535,0.514,8.959,1.039c4.103,1.279,6.706,2.905,7.812,4.878    c0.445,0.649,0.733,1.677,0.86,3.083c0,3.106-2.03,5.896-6.09,8.372c0.915,0.65,3.369,2.601,7.365,5.853    c0.936,0.713,1.402,1.333,1.402,1.857c-0.021,0.797-0.988,2.108-2.9,3.934c-3.38,3.483-5.994,5.141-7.844,4.972    c-1.041-0.208-2.072-0.964-3.092-2.265c-1.722-2.204-3.21-5.182-4.464-8.938l0.51,10.007c0.021,0.672-0.553,1.06-1.721,1.165    l-12.371,0.157c-0.935,0-1.435-0.493-1.498-1.479c0-1.364,0.042-3.631,0.127-6.798c0.17-5.833,0.229-10.668,0.176-14.508    c-0.054-3.839-0.08-6.494-0.08-7.961c0-1.448,0.563-2.255,1.689-2.423C167.957,14.13,171.677,13.815,174.992,13.815z     M175.152,21.62c-0.021,0.105-0.033,0.777-0.033,2.014c0,1.195,0.033,3.011,0.097,5.445c0,0.294,0.116,0.482,0.351,0.566h0.988    c1.615-0.776,2.423-2.455,2.423-5.035v-0.347c0-1.909-0.861-2.864-2.583-2.864C175.821,21.421,175.407,21.494,175.152,21.62z" stroke-width="1"/>
		<path fill="#693600" d="M97.03,50.424h0.184c0.813,0,1.604,0.198,2.375,0.592c1.228,0.838,1.844,1.938,1.849,3.295    c0,0.762-0.082,1.462-0.246,2.102c-0.224,0.749-0.659,1.391-1.308,1.92c-0.648,0.524-1.501,0.828-2.558,0.913h-1.004    c-0.723-0.095-1.337-0.291-1.841-0.591c-0.914-0.546-1.546-1.302-1.897-2.266c-0.123-0.363-0.184-0.72-0.184-1.07    c-0.005-0.063-0.008-0.125-0.008-0.189c0-0.754,0.125-1.436,0.375-2.037c0.16-0.361,0.375-0.709,0.646-1.039    c0.579-0.645,1.15-1.064,1.713-1.258C95.758,50.548,96.393,50.424,97.03,50.424z M96.68,52.919    c-0.377,0.251-0.566,0.788-0.566,1.612c0,0.353,0.024,0.767,0.072,1.243c0.085,0.415,0.306,0.648,0.662,0.701    c0.234,0,0.417-0.095,0.55-0.284c0.255-0.347,0.406-0.923,0.455-1.729c0-0.432-0.03-0.769-0.088-1.009    c-0.138-0.43-0.391-0.645-0.757-0.645C96.911,52.809,96.802,52.846,96.68,52.919z" stroke-width="1"/>
		<path fill="#693600" d="M108.341,50.636c0.276,0.069,0.414,0.197,0.414,0.387c-0.016,0.193-0.034,0.752-0.056,1.675v0.253    c0,0.199-0.279,0.299-0.837,0.299c-0.483-0.017-0.922-0.024-1.315-0.024c-0.578,0-0.869,0.052-0.869,0.157    c-0.042,0.398-0.063,0.656-0.063,0.771l1.776-0.033h0.176c0.309,0.012,0.462,0.135,0.462,0.371l-0.008,0.747    c0,0.194-0.183,0.307-0.55,0.339l-1.809-0.016c-0.006,0-0.009,0.094-0.009,0.282v0.323l0.111,2.518    c-0.079,0.221-0.23,0.336-0.454,0.347c-0.053,0.006-0.159,0.008-0.319,0.008h-0.493c-0.064,0-0.646,0.016-1.746,0.046    c-0.298,0-0.47-0.118-0.518-0.353v-0.024c0-0.257,0.034-1.626,0.103-4.107l-0.078-3.287v-0.079c0-0.378,0.174-0.567,0.525-0.567    l4.847-0.032H108.341z" stroke-width="1"/>
		<path fill="#693600" d="M36.279,56.286c7.803,0,12.958,0.454,15.467,1.364c2.25,0.783,4.093,2.09,5.527,3.92    c1.108,1.67,1.662,3.518,1.662,5.544v0.154c0,3.708-1.703,6.615-5.107,8.722c-3.733,2.304-9.109,3.534-16.131,3.695H35.44    c-0.432,0-0.729-0.222-0.893-0.675c0.548-6.779,0.822-12.023,0.822-15.73c0-3.097-0.076-5.111-0.227-6.044    C35.108,56.648,35.486,56.333,36.279,56.286z M44.345,63.418c-0.129,2.119-0.192,4.146-0.192,6.079    c0,0.771,0.011,1.53,0.035,2.279c1.411-0.044,2.645-0.593,3.701-1.639c1.055-1.05,1.641-2.165,1.758-3.354v-0.223    C49.646,64.558,47.879,63.51,44.345,63.418z" stroke-width="1"/>
		<path fill="#693600" d="M74.805,61.381h0.262c0.478,0,0.717,0.356,0.717,1.07c0.071,2.211,0.105,3.534,0.105,3.973    c-0.034,0.334-0.466,0.499-1.294,0.499H72.95c-3.348,0-5.021,0.037-5.021,0.106v1.363c0,0.045,0.029,0.068,0.087,0.068h5.232    c0.442,0,0.664,0.162,0.664,0.484L74,71.344c0,0.358-0.263,0.537-0.788,0.537l-5.196-0.017l0.035,1.916    c0.5,0,2.718-0.024,6.648-0.069c0.641,0.011,0.962,0.231,0.962,0.656c-0.012,2.304-0.018,3.845-0.018,4.629    c-0.046,0.39-0.285,0.587-0.717,0.587l-9.063,0.088l-3.218,0.015h-0.718c-0.595-0.034-0.893-0.345-0.893-0.932v-0.069    c0.21-2.498,0.314-4.554,0.314-6.167V72.21c-0.326-5.332-0.507-8.637-0.542-9.914c0.046-0.634,0.384-0.949,1.015-0.949h5.878    C72.156,61.369,74.524,61.381,74.805,61.381z" stroke-width="1"/>
		<path fill="#693600" d="M91.948,60.12c0.701,0,1.068,0.299,1.103,0.897c0,2.901-0.03,4.524-0.088,4.869    c0,0.428-0.396,0.64-1.189,0.64c-0.338-0.01-0.659-0.018-0.961-0.018c-0.537,0-1.021,0.023-1.452,0.068l-0.368,0.054    c-0.607,0.113-0.91,0.448-0.91,1.001c0.024,0.37,0.677,0.778,1.959,1.226c1.423,0.59,2.485,1.405,3.184,2.454    c0.362,0.608,0.601,1.076,0.718,1.398c0.151,0.369,0.239,0.794,0.263,1.277c0,0.519-0.112,1.036-0.333,1.554    c-0.84,1.635-2.467,2.937-4.882,3.903c-1.657,0.68-3.797,1.036-6.42,1.071c-0.619,0-1.271-0.024-1.959-0.069    c-1.786-0.08-2.713-0.425-2.782-1.036l-0.018-0.139c0.07-1.646,0.128-3.507,0.175-5.579c0.07-0.287,0.285-0.43,0.646-0.43    c1.961,0.438,3.354,0.655,4.182,0.655c0.886,0,1.405-0.092,1.557-0.275c0.104-0.149,0.158-0.307,0.158-0.465    c0-0.197-0.088-0.37-0.263-0.521c-1.108-0.667-2.228-1.195-3.358-1.589c-1.132-0.391-1.854-1.249-2.169-2.572    c-0.07-0.31-0.106-0.695-0.106-1.158c0.071-2.231,1.593-4.027,4.567-5.387C85.044,61.225,87.96,60.616,91.948,60.12z" stroke-width="1"/>
		<path fill="#693600" d="M99.804,68.098H99.77c-1.586,0.127-2.659,0.19-3.22,0.19c-0.64,0-1.025-0.32-1.153-0.967v-0.138    c0-0.173,0.122-1.561,0.367-4.163c0-0.92,0.414-1.381,1.244-1.381c-0.038,0-0.054-0.005-0.054-0.018    c0-0.012,0.011-0.021,0.035-0.034l10.043-0.241c0.99,0,2.269,0.011,3.83,0.034c0.386,0.022,0.612,0.189,0.684,0.501    c0.138,0.679,0.297,1.497,0.47,2.452l0.264,2.399c-0.104,0.864-0.537,1.295-1.295,1.295h-0.087c-0.375,0-1.411-0.051-3.114-0.154    c0.269,5.561,0.88,14.839,0.973,16.451c0,0.573-4.917,15.729-4.917,15.729s-4.65-15.545-4.65-15.983    c0.104-0.632,0.231-6.653,0.303-7.977c0.152-1.37,0.255-3.774,0.314-7.219V68.098z" stroke-width="1"/>
		<path fill="#693600" d="M114.132,70.326V67.89c0-0.584,0.293-0.879,0.877-0.879l9.307-0.139c0.898,0,1.348,0.316,1.348,0.948    c0.059,0.463,0.088,1.286,0.088,2.471c0,0.519-0.398,0.776-1.191,0.776H124l0.053,3.541h0.316c1.012,0,1.52,0.328,1.52,0.986    l-0.069,3.193c0,0.38-0.156,0.593-0.473,0.638c-0.733,0.048-1.235,0.069-1.504,0.069l-9.063,0.19h-0.176    c-0.547,0-0.873-0.252-0.979-0.76c-0.08-1.691-0.122-2.595-0.122-2.709V75.99c0-0.598,0.419-0.897,1.26-0.897l0.927-0.069    c0.037-1.509,0.053-2.792,0.053-3.85c-0.443-0.024-0.792-0.053-1.05-0.088C114.318,71.027,114.132,70.775,114.132,70.326z     M115.708,61.363c0-0.448,0.292-0.668,0.874-0.655l6.212-0.104c0.98,0.013,1.469,0.299,1.469,0.863    c0.024,0.817,0.082,1.773,0.175,2.867c0,0.563-0.425,0.868-1.277,0.915l-0.63,0.034c-3.266,0.161-5.247,0.195-5.948,0.104    c-0.571-0.034-0.864-0.306-0.874-0.812V61.363z" stroke-width="1"/>
		<path fill="#693600" d="M134.919,61.312c0.396,0,0.827,0.289,1.295,0.863c0.561,1.474,1.697,4.772,3.411,9.897l-0.02-1.608    l-0.122-4.402c0-0.91-0.028-2.31-0.088-4.197c0.247-0.483,0.66-0.726,1.244-0.726c0.059,0,0.419,0.005,1.084,0.018h0.893    c1.015-0.013,1.924-0.022,2.729-0.034h0.122c0.771,0,1.156,0.367,1.156,1.104c-0.106,0.299-0.239,5.02-0.401,14.16    c0.035,0.59,0.05,1.272,0.05,2.056h0.054c0,0.736-0.497,1.204-1.487,1.398c-2.402-0.07-3.827-0.102-4.268-0.102    c-0.818-0.162-1.396-0.561-1.732-1.193c-0.536-0.956-1.711-4.495-3.517-10.618l0.052,2.311v8.619    c-0.071,0.519-0.467,0.776-1.189,0.776c-2.333,0.023-4.041,0.037-5.125,0.037c-0.946,0-1.419-0.152-1.419-0.452    c0.42-4.822,0.678-9.588,0.771-14.298l0.263-2.193c0-0.92,0.343-1.381,1.031-1.381L134.919,61.312z" stroke-width="1"/>
		<path fill="#693600" d="M159.532,61.26h7.173c0.234,0,0.352,0.087,0.352,0.26c0,0.852-1.465,3.833-4.392,8.944    c-0.513,1.141-0.771,1.768-0.771,1.884l0.701,6.406c-0.069,0.598-0.42,0.897-1.05,0.897l-7.611,0.034    c-0.596,0-0.893-0.286-0.893-0.862l0.385-5.784l0.088-0.729c0-0.101-1.938-3.348-5.808-9.738    c-0.244-0.668-0.011-1.059,0.698-1.175l6.841-0.173c0.479,0.058,0.729,0.295,0.753,0.709c0.105,0.634,0.353,1.747,0.743,3.343    c0.391,1.593,0.739,2.726,1.042,3.392c0.292-0.68,0.693-2.936,1.206-6.769C158.99,61.53,159.171,61.316,159.532,61.26z" stroke-width="1"/>
	</g>
	<g>
		<g>
			<linearGradient id="SVGID_1_" gradientUnits="userSpaceOnUse" x1="24.8545" y1="2.9473" x2="24.8545" y2="44.835">
				<stop offset="0" style="stop-color:#FBE75D"/>
				<stop offset="0.2264" style="stop-color:#FBDE54"/>
				<stop offset="0.6027" style="stop-color:#FBC43B"/>
				<stop offset="0.9944" style="stop-color:#FBA31A"/>
			</linearGradient>
			<path fill="url(#SVGID_1_)" d="M32.618,2.947c2.402,0,5.441,0.032,9.118,0.095c0.659,0.042,0.989,0.273,0.989,0.693     c0.127,1.595,0.722,5.371,1.785,11.329c0,1.699-0.765,2.549-2.295,2.549h-0.223c-0.893,0-3.656-0.137-8.29-0.409     c-0.085,0.021-0.127,0.115-0.127,0.283c0.659,12.735,1.105,20.729,1.339,23.98v0.786c-0.212,1.218-0.754,1.826-1.626,1.826     l-16.451,0.756c-1.403-0.021-2.062-0.954-1.977-2.8c0.702-6.525,1.052-13.7,1.052-21.527v-2.548h-0.988     c-3.869,0.335-6.462,0.504-7.779,0.504c-1.042,0-1.69-0.609-1.945-1.826v-0.284c0-0.399,0.144-1.369,0.431-2.911     c0.287-1.542,0.717-3.887,1.291-7.034c0-1.845,0.723-2.77,2.168-2.77C9.153,3.64,16.996,3.409,32.618,2.947z" stroke-width="1"/>
			<linearGradient id="SVGID_2_" gradientUnits="userSpaceOnUse" x1="64.5156" y1="10.5005" x2="64.5156" y2="45.7793">
				<stop offset="0" style="stop-color:#FBE75D"/>
				<stop offset="0.2264" style="stop-color:#FBDE54"/>
				<stop offset="0.6027" style="stop-color:#FBC43B"/>
				<stop offset="0.9944" style="stop-color:#FBA31A"/>
			</linearGradient>
			<path fill="url(#SVGID_2_)" d="M64.978,10.5h0.733c3.252,0,6.418,0.787,9.5,2.361c4.91,3.357,7.375,7.752,7.396,13.186     c0,3.042-0.33,5.843-0.988,8.402c-0.893,3-2.635,5.56-5.229,7.679c-2.593,2.098-6.004,3.314-10.234,3.65h-4.017     c-2.891-0.378-5.346-1.165-7.365-2.36c-3.656-2.182-6.186-5.204-7.588-9.064c-0.489-1.448-0.733-2.874-0.733-4.28     c-0.021-0.251-0.032-0.503-0.032-0.754c0-3.022,0.499-5.739,1.498-8.151c0.638-1.448,1.499-2.832,2.583-4.153     c2.317-2.582,4.602-4.259,6.855-5.037C59.887,10.993,62.428,10.5,64.978,10.5z M63.575,20.477     c-1.509,1.007-2.264,3.158-2.264,6.451c0,1.406,0.095,3.063,0.287,4.972c0.34,1.658,1.222,2.592,2.646,2.802     c0.936,0,1.669-0.378,2.201-1.133c1.02-1.384,1.625-3.693,1.817-6.924c0-1.721-0.117-3.063-0.351-4.028     c-0.553-1.72-1.563-2.581-3.029-2.581C64.5,20.036,64.064,20.183,63.575,20.477z" stroke-width="1"/>
			<linearGradient id="SVGID_3_" gradientUnits="userSpaceOnUse" x1="106.3418" y1="11.1201" x2="106.3418" y2="44.835">
				<stop offset="0" style="stop-color:#FBE75D"/>
				<stop offset="0.2264" style="stop-color:#FBDE54"/>
				<stop offset="0.6027" style="stop-color:#FBC43B"/>
				<stop offset="0.9944" style="stop-color:#FBA31A"/>
			</linearGradient>
			<path fill="url(#SVGID_3_)" d="M96.955,11.13c1.148-0.083,1.828,0.336,2.041,1.258l0.701,15.861     c0.829-3.797,1.552-7.579,2.168-11.344c0.617-3.767,1.328-5.649,2.137-5.649l5.037-0.126c1.042,0.042,1.626,0.524,1.753,1.446     l2.199,16.618c0.384-2.896,0.606-8.497,0.671-16.806c0-0.649,0.658-1.059,1.977-1.227c1.615,0,3.581,0.106,5.898,0.314     l5.228,0.315c1.275,0.21,1.69,1.06,1.244,2.549c-3.23,10.469-5.25,18.537-6.058,24.201c-0.659,3.987-1.732,5.979-3.221,5.979     l-9.596,0.032c-1.467,0-2.2-0.882-2.2-2.644l-0.988-12.682c-0.106,1.174-0.755,5.958-1.944,14.349     c-0.298,0.672-0.776,1.007-1.436,1.007l-9.851,0.253c-1.254,0-1.999-0.713-2.232-2.14c-0.51-3-2.476-12.419-5.898-28.261     c-0.297-1.489,0.181-2.297,1.435-2.423l3.603-0.221C90.324,11.75,92.768,11.529,96.955,11.13z" stroke-width="1"/>
			<linearGradient id="SVGID_4_" gradientUnits="userSpaceOnUse" x1="144.1719" y1="11.4136" x2="144.1719" y2="44.835">
				<stop offset="0" style="stop-color:#FBE75D"/>
				<stop offset="0.2264" style="stop-color:#FBDE54"/>
				<stop offset="0.6027" style="stop-color:#FBC43B"/>
				<stop offset="0.9944" style="stop-color:#FBA31A"/>
			</linearGradient>
			<path fill="url(#SVGID_4_)" d="M155.937,11.476h0.479c0.872,0,1.308,0.651,1.308,1.952c0.128,4.028,0.19,6.441,0.19,7.239     c-0.063,0.608-0.85,0.912-2.359,0.912h-2.996c-6.101,0-9.149,0.063-9.149,0.188v2.487c0,0.083,0.052,0.125,0.159,0.125h9.532     c0.808,0,1.212,0.295,1.212,0.882l0.159,4.375c0,0.65-0.479,0.975-1.436,0.975l-9.468-0.031l0.063,3.493     c0.915,0,4.953-0.042,12.116-0.126c1.169,0.021,1.753,0.42,1.753,1.195c-0.021,4.197-0.031,7.009-0.031,8.434     c-0.085,0.713-0.521,1.071-1.308,1.071l-16.515,0.157l-5.866,0.032h-1.307c-1.085-0.063-1.626-0.63-1.626-1.699V43.01     c0.382-4.553,0.573-8.297,0.573-11.234v-0.567c-0.596-9.713-0.925-15.735-0.988-18.063c0.085-1.153,0.701-1.731,1.849-1.731     h10.712C151.112,11.456,155.427,11.476,155.937,11.476z" stroke-width="1"/>
			<linearGradient id="SVGID_5_" gradientUnits="userSpaceOnUse" x1="178.1113" y1="10.8154" x2="178.1113" y2="44.9292">
				<stop offset="0" style="stop-color:#FBE75D"/>
				<stop offset="0.2264" style="stop-color:#FBDE54"/>
				<stop offset="0.6027" style="stop-color:#FBC43B"/>
				<stop offset="0.9944" style="stop-color:#FBA31A"/>
			</linearGradient>
			<path fill="url(#SVGID_5_)" d="M174.492,10.815c4.549,0.167,7.535,0.514,8.959,1.039c4.103,1.279,6.706,2.905,7.812,4.878     c0.445,0.649,0.733,1.677,0.86,3.083c0,3.106-2.03,5.896-6.09,8.372c0.915,0.65,3.369,2.601,7.365,5.853     c0.936,0.713,1.402,1.333,1.402,1.857c-0.021,0.797-0.988,2.108-2.9,3.934c-3.38,3.483-5.994,5.141-7.844,4.972     c-1.041-0.208-2.072-0.964-3.092-2.265c-1.722-2.204-3.21-5.182-4.464-8.938l0.51,10.007c0.021,0.672-0.553,1.06-1.721,1.165     l-12.371,0.157c-0.935,0-1.435-0.493-1.498-1.479c0-1.364,0.042-3.631,0.127-6.798c0.17-5.833,0.229-10.668,0.176-14.508     c-0.054-3.839-0.08-6.494-0.08-7.961c0-1.448,0.563-2.255,1.689-2.423C167.457,11.13,171.177,10.815,174.492,10.815z      M174.652,18.62c-0.021,0.105-0.033,0.777-0.033,2.014c0,1.195,0.033,3.011,0.097,5.445c0,0.294,0.116,0.482,0.351,0.566h0.988     c1.615-0.776,2.423-2.455,2.423-5.035v-0.347c0-1.909-0.861-2.864-2.583-2.864C175.321,18.421,174.907,18.494,174.652,18.62z" stroke-width="1"/>
			<linearGradient id="SVGID_6_" gradientUnits="userSpaceOnUse" x1="96.4146" y1="47.4238" x2="96.4146" y2="56.2456">
				<stop offset="0" style="stop-color:#FBE75D"/>
				<stop offset="0.2264" style="stop-color:#FBDE54"/>
				<stop offset="0.6027" style="stop-color:#FBC43B"/>
				<stop offset="0.9944" style="stop-color:#FBA31A"/>
			</linearGradient>
			<path fill="url(#SVGID_6_)" d="M96.53,47.424h0.184c0.813,0,1.604,0.198,2.375,0.591c1.228,0.838,1.844,1.938,1.849,3.295     c0,0.762-0.083,1.462-0.247,2.102c-0.223,0.749-0.659,1.391-1.307,1.92c-0.648,0.524-1.501,0.828-2.558,0.913h-1.004     c-0.723-0.095-1.337-0.291-1.841-0.591c-0.914-0.546-1.546-1.302-1.897-2.266c-0.123-0.363-0.184-0.72-0.184-1.07     c-0.005-0.063-0.008-0.125-0.008-0.189c0-0.754,0.125-1.435,0.375-2.038c0.16-0.361,0.375-0.708,0.646-1.039     c0.579-0.645,1.15-1.064,1.713-1.258C95.258,47.548,95.893,47.424,96.53,47.424z M96.18,49.919     c-0.377,0.251-0.566,0.789-0.566,1.612c0,0.353,0.024,0.767,0.072,1.243c0.085,0.415,0.306,0.648,0.662,0.701     c0.234,0,0.417-0.095,0.55-0.284c0.255-0.347,0.406-0.923,0.455-1.729c0-0.432-0.03-0.768-0.088-1.008     c-0.138-0.43-0.391-0.645-0.757-0.645C96.411,49.809,96.302,49.846,96.18,49.919z" stroke-width="1"/>
			<linearGradient id="SVGID_7_" gradientUnits="userSpaceOnUse" x1="104.9951" y1="47.6362" x2="104.9951" y2="56.0864">
				<stop offset="0" style="stop-color:#FBE75D"/>
				<stop offset="0.2264" style="stop-color:#FBDE54"/>
				<stop offset="0.6027" style="stop-color:#FBC43B"/>
				<stop offset="0.9944" style="stop-color:#FBA31A"/>
			</linearGradient>
			<path fill="url(#SVGID_7_)" d="M107.841,47.636c0.276,0.069,0.414,0.197,0.414,0.387c-0.016,0.194-0.034,0.752-0.056,1.675v0.252     c0,0.199-0.279,0.299-0.837,0.299c-0.483-0.016-0.922-0.024-1.315-0.024c-0.578,0-0.869,0.052-0.869,0.157     c-0.042,0.398-0.063,0.656-0.063,0.771l1.776-0.033h0.176c0.309,0.012,0.462,0.135,0.462,0.371l-0.008,0.747     c0,0.194-0.183,0.307-0.55,0.339l-1.809-0.016c-0.006,0-0.009,0.094-0.009,0.282v0.323l0.111,2.518     c-0.079,0.221-0.23,0.336-0.454,0.347c-0.053,0.006-0.159,0.008-0.319,0.008h-0.493c-0.064,0-0.646,0.016-1.746,0.046     c-0.298,0-0.47-0.118-0.518-0.353v-0.024c0-0.257,0.034-1.626,0.103-4.107l-0.078-3.288v-0.079c0-0.378,0.174-0.567,0.525-0.567     l4.847-0.032H107.841z" stroke-width="1"/>
			<linearGradient id="SVGID_8_" gradientUnits="userSpaceOnUse" x1="46.2412" y1="53.2861" x2="46.2412" y2="76.6855">
				<stop offset="0" style="stop-color:#FBE75D"/>
				<stop offset="0.2264" style="stop-color:#FBDE54"/>
				<stop offset="0.6027" style="stop-color:#FBC43B"/>
				<stop offset="0.9944" style="stop-color:#FBA31A"/>
			</linearGradient>
			<path fill="url(#SVGID_8_)" d="M35.779,53.286c7.803,0,12.958,0.454,15.467,1.364c2.25,0.783,4.093,2.09,5.527,3.92     c1.108,1.67,1.662,3.518,1.662,5.544v0.154c0,3.708-1.703,6.615-5.107,8.722c-3.733,2.304-9.109,3.534-16.131,3.695H34.94     c-0.432,0-0.729-0.222-0.893-0.675c0.548-6.779,0.822-12.023,0.822-15.73c0-3.097-0.076-5.111-0.227-6.044     C34.608,53.648,34.986,53.333,35.779,53.286z M43.845,60.418c-0.129,2.119-0.192,4.146-0.192,6.079     c0,0.771,0.011,1.53,0.035,2.279c1.411-0.044,2.645-0.593,3.701-1.639c1.055-1.05,1.641-2.165,1.758-3.354v-0.223     C49.146,61.558,47.379,60.51,43.845,60.418z" stroke-width="1"/>
			<linearGradient id="SVGID_9_" gradientUnits="userSpaceOnUse" x1="67.8486" y1="58.3467" x2="67.8486" y2="76.6855">
				<stop offset="0" style="stop-color:#FBE75D"/>
				<stop offset="0.2264" style="stop-color:#FBDE54"/>
				<stop offset="0.6027" style="stop-color:#FBC43B"/>
				<stop offset="0.9944" style="stop-color:#FBA31A"/>
			</linearGradient>
			<path fill="url(#SVGID_9_)" d="M74.305,58.381h0.262c0.478,0,0.717,0.356,0.717,1.07c0.071,2.211,0.105,3.534,0.105,3.973     c-0.034,0.334-0.466,0.499-1.294,0.499H72.45c-3.348,0-5.021,0.037-5.021,0.106v1.363c0,0.045,0.029,0.068,0.087,0.068h5.232     c0.442,0,0.664,0.162,0.664,0.484l0.088,2.398c0,0.358-0.263,0.537-0.788,0.537l-5.196-0.017l0.035,1.916     c0.5,0,2.718-0.024,6.648-0.069c0.641,0.011,0.962,0.231,0.962,0.656c-0.012,2.304-0.018,3.845-0.018,4.629     c-0.046,0.39-0.285,0.587-0.717,0.587l-9.063,0.088l-3.218,0.015h-0.718c-0.595-0.034-0.893-0.345-0.893-0.932v-0.069     c0.21-2.498,0.314-4.554,0.314-6.167V69.21c-0.326-5.332-0.507-8.637-0.542-9.914c0.046-0.634,0.384-0.949,1.015-0.949h5.878     C71.656,58.369,74.024,58.381,74.305,58.381z" stroke-width="1"/>
			<linearGradient id="SVGID_10_" gradientUnits="userSpaceOnUse" x1="85.5093" y1="57.1201" x2="85.5093" y2="77.5156">
				<stop offset="0" style="stop-color:#FBE75D"/>
				<stop offset="0.2264" style="stop-color:#FBDE54"/>
				<stop offset="0.6027" style="stop-color:#FBC43B"/>
				<stop offset="0.9944" style="stop-color:#FBA31A"/>
			</linearGradient>
			<path fill="url(#SVGID_10_)" d="M91.448,57.12c0.701,0,1.068,0.299,1.103,0.897c0,2.901-0.03,4.524-0.088,4.869     c0,0.428-0.396,0.64-1.189,0.64c-0.338-0.01-0.659-0.018-0.961-0.018c-0.537,0-1.021,0.023-1.452,0.068l-0.368,0.054     c-0.607,0.113-0.91,0.448-0.91,1.001c0.024,0.37,0.677,0.778,1.959,1.226c1.423,0.59,2.485,1.405,3.184,2.454     c0.362,0.608,0.601,1.076,0.718,1.398c0.151,0.369,0.239,0.794,0.263,1.277c0,0.519-0.112,1.036-0.333,1.554     c-0.84,1.635-2.467,2.937-4.882,3.903c-1.657,0.68-3.797,1.036-6.42,1.071c-0.619,0-1.271-0.024-1.959-0.069     c-1.786-0.08-2.713-0.425-2.782-1.036l-0.018-0.139c0.07-1.646,0.128-3.507,0.175-5.579c0.07-0.287,0.285-0.43,0.646-0.43     c1.961,0.438,3.354,0.655,4.182,0.655c0.886,0,1.405-0.092,1.557-0.275c0.104-0.149,0.158-0.307,0.158-0.465     c0-0.197-0.088-0.37-0.263-0.521c-1.108-0.667-2.228-1.195-3.358-1.589c-1.132-0.391-1.854-1.249-2.169-2.572     c-0.07-0.31-0.106-0.695-0.106-1.158c0.071-2.231,1.593-4.027,4.567-5.387C84.544,58.225,87.46,57.616,91.448,57.12z" stroke-width="1"/>
			<linearGradient id="SVGID_11_" gradientUnits="userSpaceOnUse" x1="103.3379" y1="58.3467" x2="103.3379" y2="97.0537">
				<stop offset="0" style="stop-color:#FBE75D"/>
				<stop offset="0.2264" style="stop-color:#FBDE54"/>
				<stop offset="0.6027" style="stop-color:#FBC43B"/>
				<stop offset="0.9944" style="stop-color:#FBA31A"/>
			</linearGradient>
			<path fill="url(#SVGID_11_)" d="M99.304,65.098H99.27c-1.586,0.127-2.659,0.19-3.22,0.19c-0.64,0-1.025-0.32-1.153-0.967v-0.138     c0-0.173,0.122-1.561,0.367-4.163c0-0.92,0.414-1.381,1.244-1.381c-0.038,0-0.054-0.005-0.054-0.018     c0-0.012,0.011-0.021,0.035-0.034l10.043-0.241c0.99,0,2.269,0.011,3.83,0.034c0.386,0.022,0.612,0.189,0.684,0.501     c0.138,0.679,0.297,1.497,0.47,2.452l0.264,2.399c-0.104,0.864-0.537,1.295-1.295,1.295h-0.087c-0.375,0-1.411-0.051-3.114-0.154     c0.269,5.561,0.88,14.839,0.973,16.451c0,0.573-4.917,15.729-4.917,15.729s-4.65-15.545-4.65-15.983     c0.104-0.632,0.231-6.653,0.303-7.977c0.152-1.37,0.255-3.774,0.314-7.219V65.098z" stroke-width="1"/>
			<linearGradient id="SVGID_12_" gradientUnits="userSpaceOnUse" x1="119.1953" y1="57.6035" x2="119.1953" y2="76.6855">
				<stop offset="0" style="stop-color:#FBE75D"/>
				<stop offset="0.2264" style="stop-color:#FBDE54"/>
				<stop offset="0.6027" style="stop-color:#FBC43B"/>
				<stop offset="0.9944" style="stop-color:#FBA31A"/>
			</linearGradient>
			<path fill="url(#SVGID_12_)" d="M113.632,67.326V64.89c0-0.584,0.293-0.879,0.877-0.879l9.307-0.139     c0.898,0,1.348,0.316,1.348,0.948c0.059,0.463,0.088,1.286,0.088,2.471c0,0.519-0.398,0.776-1.191,0.776h-0.56l0.053,3.541h0.316     c1.012,0,1.52,0.328,1.52,0.986l-0.069,3.193c0,0.38-0.156,0.593-0.473,0.638c-0.733,0.048-1.235,0.069-1.504,0.069l-9.063,0.19     h-0.176c-0.547,0-0.873-0.252-0.979-0.76c-0.08-1.691-0.122-2.595-0.122-2.709V72.99c0-0.598,0.419-0.897,1.26-0.897l0.927-0.069     c0.037-1.509,0.053-2.792,0.053-3.85c-0.443-0.024-0.792-0.053-1.05-0.088C113.818,68.027,113.632,67.775,113.632,67.326z      M115.208,58.363c0-0.448,0.292-0.668,0.874-0.655l6.212-0.104c0.98,0.013,1.469,0.299,1.469,0.863     c0.024,0.817,0.082,1.773,0.175,2.867c0,0.563-0.425,0.868-1.277,0.915l-0.63,0.034c-3.266,0.161-5.247,0.195-5.948,0.104     c-0.571-0.034-0.864-0.306-0.874-0.812V58.363z" stroke-width="1"/>
			<linearGradient id="SVGID_13_" gradientUnits="userSpaceOnUse" x1="136.6309" y1="58.1221" x2="136.6309" y2="76.8408">
				<stop offset="0" style="stop-color:#FBE75D"/>
				<stop offset="0.2264" style="stop-color:#FBDE54"/>
				<stop offset="0.6027" style="stop-color:#FBC43B"/>
				<stop offset="0.9944" style="stop-color:#FBA31A"/>
			</linearGradient>
			<path fill="url(#SVGID_13_)" d="M134.419,58.312c0.396,0,0.827,0.289,1.295,0.863c0.561,1.474,1.697,4.772,3.411,9.897     l-0.02-1.608l-0.122-4.402c0-0.91-0.028-2.31-0.088-4.197c0.247-0.483,0.66-0.726,1.244-0.726c0.059,0,0.419,0.005,1.084,0.018     h0.893c1.015-0.013,1.924-0.022,2.729-0.034h0.122c0.771,0,1.156,0.367,1.156,1.104c-0.106,0.299-0.239,5.02-0.401,14.16     c0.035,0.59,0.05,1.272,0.05,2.056h0.054c0,0.736-0.497,1.204-1.487,1.398c-2.402-0.07-3.827-0.102-4.268-0.102     c-0.818-0.162-1.396-0.561-1.732-1.193c-0.536-0.956-1.711-4.495-3.517-10.618l0.052,2.311v8.619     c-0.071,0.519-0.467,0.776-1.189,0.776c-2.333,0.023-4.041,0.037-5.125,0.037c-0.946,0-1.419-0.152-1.419-0.452     c0.42-4.822,0.678-9.588,0.771-14.298l0.263-2.193c0-0.92,0.343-1.381,1.031-1.381L134.419,58.312z" stroke-width="1"/>
			<linearGradient id="SVGID_14_" gradientUnits="userSpaceOnUse" x1="156.835" y1="58.2246" x2="156.835" y2="76.6855">
				<stop offset="0" style="stop-color:#FBE75D"/>
				<stop offset="0.2264" style="stop-color:#FBDE54"/>
				<stop offset="0.6027" style="stop-color:#FBC43B"/>
				<stop offset="0.9944" style="stop-color:#FBA31A"/>
			</linearGradient>
			<path fill="url(#SVGID_14_)" d="M159.032,58.26h7.173c0.234,0,0.352,0.087,0.352,0.26c0,0.852-1.465,3.833-4.392,8.944     c-0.513,1.141-0.771,1.768-0.771,1.884l0.701,6.406c-0.069,0.598-0.42,0.897-1.05,0.897l-7.611,0.034     c-0.596,0-0.893-0.286-0.893-0.862l0.385-5.784l0.088-0.729c0-0.101-1.938-3.348-5.808-9.738     c-0.244-0.668-0.011-1.059,0.698-1.175l6.841-0.173c0.479,0.058,0.729,0.295,0.753,0.709c0.105,0.634,0.353,1.747,0.743,3.343     c0.391,1.593,0.739,2.726,1.042,3.392c0.292-0.68,0.693-2.936,1.206-6.769C158.49,58.53,158.671,58.316,159.032,58.26z" stroke-width="1"/>
		</g>
	</g>
</g>
</svg>