<svg xmlns="http://www.w3.org/2000/svg" xmlns:xlink="http://www.w3.org/1999/xlink" version="1.1" id="Layer_1" x="0px" y="0px" width="83" height="72" viewBox="5.75 16.25 83 72" enable-background="new 0 0 100 100" xml:space="preserve">
  <g>
    <path fill="#DA463E" d="M47,21c0,0,6.75-4.25,16.5-4.25S88.25,20,88.25,40.25S53.5,87.75,47,87.75s-40.75-35-40.75-47.5&#13;&#10;&#9;s10.25-23.5,23.25-23.5S47,21,47,21z" stroke-width="1"/>
    <path fill="#FD655B" d="M47.021,23.641c0,0,6.18-3.891,15.106-3.891s22.658,2.976,22.658,21.514S52.972,84.75,47.021,84.75&#13;&#10;&#9;S9.715,52.708,9.715,41.264S19.099,19.75,31,19.75S47.021,23.641,47.021,23.641z" stroke-width="1"/>
    <path fill="#FFF6EC" d="M13.004,44.497c0,0-1.585-17.838,18.829-22C31.833,22.497,18.752,26.856,13.004,44.497z" stroke-width="1"/>
  </g>
</svg>