<svg xmlns="http://www.w3.org/2000/svg" xmlns:xlink="http://www.w3.org/1999/xlink" version="1.1" width="88.8348388671875" height="129.8376693725586" viewBox="12.5066499710083 1.1795432567596436 88.8348388671875 129.8376693725586">
  <!-- Exported by Scratch - http://scratch.mit.edu/ -->
  <g id="ID0.5701378411613405">
    <path id="ID0.8972083395346999" fill="#A85B00" stroke="none" stroke-linecap="round" d="M 65.794 49.8124 C 77.4144 54.5287 87.0247 61.068 93.1638 67.8228 C 99.3028 74.5777 101.5735 80.6023 99.7066 87.1261 C 97.1681 95.9788 89.6661 104.3191 80.9422 107.9077 C 71.2464 112.1856 59.1476 112.5713 48.9123 108.8176 C 37.0105 104.4509 25.4906 95.979 19.1114 85.1246 C 13.4264 75.8213 11.798 62.9146 15.4688 52.9366 C 17.8146 46.569 24.5038 44.219 33.614 43.6534 C 42.7242 43.0878 54.1736 45.096 65.794 49.8124 Z " stroke-width="0.6910801836969137"/>
    <path id="ID0.10735392430797219" fill="#EF9300" stroke="#EAC28E" stroke-width="1.9026992387589352" stroke-linecap="round" d="M 65.9956 49.8923 C 77.0685 54.3865 86.3776 60.2419 92.474 66.071 C 98.5701 71.9007 101.4528 77.7038 99.6709 82.094 C 97.889 86.4843 91.7774 88.6368 83.3427 88.569 C 74.9083 88.5005 64.1516 86.2117 53.0787 81.7176 C 42.0058 77.2235 32.6966 71.368 26.6003 65.5389 C 20.5041 59.7092 17.6215 53.9061 19.4033 49.5159 C 21.1852 45.1257 27.2968 42.9731 35.7315 43.041 C 44.1659 43.1095 54.9227 45.3982 65.9956 49.8923 Z "/>
    <path id="ID0.4141157087869942" fill="none" stroke="#EAC28E" stroke-width="1.378791351498305" stroke-linecap="round" d="M 63.4428 49.6404 C 63.4428 49.6404 59.1379 62.2482 55.3633 67.6174 C 52.5718 71.5882 44.2088 76.9999 44.2088 76.9999 "/>
    <path id="ID0.011384283192455769" fill="none" stroke="#EAC28E" stroke-width="1.378791351498305" stroke-linecap="round" d="M 56.905 64.7377 L 92.201 66.3469 "/>
    <path id="ID0.8657065210863948" fill="none" stroke="#EAC28E" stroke-width="1.378791351498305" stroke-linecap="round" d="M 77.3349 87.7225 C 77.3349 87.7225 56.6321 65.4101 56.6321 65.4101 L 22.2258 46.4486 "/>
    <path id="ID0.9600630304776132" fill="none" stroke="#EAC28E" stroke-width="1.378791351498305" stroke-linecap="round" d="M 55.3194 64.8773 L 26.2103 64.2876 "/>
    <path id="ID0.13748089503496885" fill="none" stroke="#EAC28E" stroke-width="1.378791351498305" stroke-linecap="round" d="M 55.7189 65.8226 L 41.5998 43.46 "/>
    <path id="ID0.14989860635250807" fill="none" stroke="#EAC28E" stroke-width="1.378791351498305" stroke-linecap="round" d="M 56.5815 66.5456 L 98.6241 82.8635 "/>
  </g>
  <path id="ID0.9409040780737996" fill="#00FF55" stroke="#B2B2B2" stroke-width="2" stroke-linecap="round" d="M 29 6 C 28.853 13.749 31.354 24.418 34 35 C 34.661 37.646 34.837 38.07 36 39 C 36.78 39.624 38.201 38.401 39 39 C 39.842 39.632 39.69 40.994 40 42 C 41.022 45.323 41.978 48.677 43 52 C 43.31 53.006 43.414 54.707 44 55 C 44.414 55.207 44.38 53.413 45 53 C 45.554 52.631 46.334 53 47 53 C 47.666 53 48.529 52.529 49 53 C 49.745 53.745 49.609 55.022 50 56 C 50.277 56.691 50.795 57.284 51 58 C 51.466 59.633 51.512 61.374 52 63 C 52.515 64.718 53.198 66.396 54 68 C 54.868 69.737 56.057 71.303 57 73 C 57.723 74.302 58.334 75.668 59 77 C 59.999 78.998 61.468 83 62 83 C 62.532 83 62 78.998 62 77 C 62 75.668 61.337 72.503 62 73 C 63.245 73.934 64.737 77.631 66 80 C 67.402 82.628 68.668 85.336 70 88 C 70.333 88.666 70.765 89.294 71 90 C 71.434 91.303 71.507 92.719 72 94 C 73.177 97.061 74.708 99.986 76 103 C 76.706 104.648 77.294 106.352 78 108 C 78.293 108.684 78.587 109.38 79 110 C 80.589 112.383 82.557 114.526 84 117 C 84.904 118.549 85.198 120.396 86 122 C 86.868 123.737 87.971 125.353 89 127 C 89.636 128.018 90.074 129.691 91 130 C 91.574 130.191 92 128.745 92 128 C 92 126.302 91.61 124.585 91 123 C 89.931 120.22 88.332 117.664 87 115 C 86.667 114.334 86.181 113.722 86 113 C 85.838 112.354 86.094 111.659 86 111 C 85.76 109.319 85.333 107.665 85 106 C 84.667 104.335 84.596 102.59 84 101 C 83.578 99.876 82.446 99.115 82 98 C 81.753 97.382 82.131 96.653 82 96 C 81.793 94.967 81.37 93.986 81 93 C 80.37 91.321 79.567 89.701 79 88 C 78.566 86.697 78.226 85.354 78 84 C 77.891 83.343 78.247 82.618 78 82 C 77.554 80.885 76.596 80.042 76 79 C 75.261 77.707 74.666 76.332 74 75 C 73.667 74.334 73.122 73.734 73 73 C 72.781 71.686 73.219 70.314 73 69 C 72.878 68.266 72.177 67 72 67 C 71.823 67 72.298 68.404 72 69 C 71.579 69.842 70.942 71 70 71 C 69.058 71 68.485 69.808 68 69 C 66.468 66.446 65.532 63.554 64 61 C 63.515 60.192 62.565 59.753 62 59 C 61.553 58.404 60.473 57.176 61 57 C 61.973 56.676 63.66 57.702 65 58 C 66.658 58.368 69.545 59.455 70 59 C 70.454 58.546 67.904 57.085 67 56 C 66.231 55.078 65.649 54.01 65 53 C 62.652 49.348 60.301 45.682 58 42 C 56.971 40.353 55.999 38.665 55 37 C 54.001 35.335 52.943 33.697 52 32 C 51.277 30.698 51.191 28.894 50 28 C 49.404 27.553 48.722 28.819 48 29 C 47.354 29.162 46.447 29.596 46 29 C 44.213 26.617 43.426 23.615 42 21 C 41.425 19.946 40.446 19.115 40 18 C 39.753 17.382 40.4 16.533 40 16 C 39.28 15.039 37.912 14.781 37 14 C 35.57 12.774 34.447 11.206 33 10 C 32.428 9.523 31.527 9.527 31 9 C 30.151 8.151 29.666 6.999 29 6 C 28.334 5.001 26.537 0.313 27 3 Z "/>
</svg>