<svg xmlns="http://www.w3.org/2000/svg" xmlns:xlink="http://www.w3.org/1999/xlink" version="1.1" width="92.41282217556312" height="107.36922018581703" viewBox="0.9937126991447098 1.0000675079520829 92.41282217556312 107.36922018581703">
  <!-- Exported by Scratch - http://scratch.mit.edu/ -->
  <g id="ID0.9171332279220223">
    <g id="layer1">
      <g id="g7059">
        <g id="g6991">
          <path id="path4727-5" fill="#4e9a06" stroke="#231f20" stroke-width="2.72534895" d="M 39.345 94.331 C 18.763 93.692 2.363 82.085 2.363 67.86 C 2.363 53.636 18.763 42.029 39.345 41.39 "/>
          <path id="path6968" fill="#356804" stroke="none" d="M 39.372 89.267 C 39.298 89.27 39.224 89.272 39.15 89.274 C 37.687 89.329 36.223 89.002 34.788 88.756 C 32.777 88.372 30.821 87.815 28.843 87.284 C 27.822 86.963 26.765 86.671 25.79 86.22 C 24.448 85.499 23.156 84.695 21.809 83.984 C 19.703 82.805 17.627 81.575 15.674 80.14 C 12.335 77.225 9.063 74.171 6.049 70.897 L 3.922 68.633 C 3.935 68.926 3.949 69.216 3.976 69.506 C 3.98 69.512 3.972 69.527 3.976 69.533 C 4.078 69.687 4.196 69.836 4.276 69.997 C 5.538 72.033 6.863 74.026 8.394 75.859 C 9.649 77.462 10.995 78.98 12.456 80.385 C 13.944 81.864 15.379 83.421 17.064 84.666 C 18.406 85.703 19.76 86.71 21.209 87.584 C 22.806 88.59 24.429 89.557 26.117 90.392 C 28.333 91.333 30.656 92.003 32.961 92.682 C 35.029 92.999 37.161 93.205 39.343 93.279 " stroke-width="1"/>
          <path id="path6966" fill="#356804" stroke="none" d="M 39.368 75.321 C 38.102 75.388 36.825 75.315 35.578 75.096 C 33.255 74.795 30.925 74.649 28.598 74.387 C 27.3 74.277 26.002 74.112 24.726 73.841 C 22.135 73.165 19.572 72.401 17.037 71.524 C 15.116 70.79 13.246 69.878 11.311 69.179 C 9.861 68.609 8.373 68.194 6.84 67.952 C 6.234 67.855 5.635 67.626 5.04 67.488 L 5.04 67.488 C 4.929 67.462 4.825 67.425 4.713 67.406 C 3.996 67.598 4.424 68.633 5.04 68.552 C 5.834 68.959 6.64 69.39 7.385 69.888 C 10.872 71.97 14.349 74.051 17.91 75.995 C 19.543 77.023 21.32 77.741 23.118 78.395 C 25.336 79.074 27.611 79.605 29.852 80.194 C 32.018 80.69 34.195 81.117 36.396 81.394 C 37.391 81.427 38.38 81.411 39.369 81.379 " stroke-width="1"/>
          <path id="path6960" fill="#356804" stroke="none" d="M 39.364 60.954 C 38.446 61.036 37.529 61.115 36.614 61.19 C 33.015 61.415 29.415 61.433 25.817 61.68 C 24.386 61.814 22.937 61.996 21.536 62.335 C 20.452 62.551 19.345 62.713 18.319 63.153 C 16.945 63.611 15.644 64.243 14.338 64.871 C 12.542 65.631 10.647 66.113 8.721 66.343 C 7.742 66.445 6.782 66.635 5.803 66.725 C 5.363 66.76 4.491 66.494 4.413 67.106 C 4.58 67.353 4.781 67.448 5.04 67.488 C 5.472 67.555 6.024 67.449 6.43 67.57 C 8.603 67.807 10.75 68.01 12.893 68.47 C 14.671 68.818 16.419 69.366 18.182 69.779 C 18.837 69.892 19.478 70.024 20.145 70.024 C 21.232 70.071 22.349 70.18 23.417 69.915 C 24.102 69.707 24.541 69.086 25.108 68.688 C 25.706 68.311 26.451 68.302 27.126 68.361 C 29.175 68.499 31.209 68.725 33.261 68.824 C 35.303 68.865 37.339 68.75 39.379 68.679 " stroke-width="1"/>
          <path id="path6958" fill="#356804" stroke="none" d="M 39.366 45.635 C 39.202 45.632 39.038 45.639 38.878 45.648 L 38.878 45.648 C 38.125 45.689 37.392 45.859 36.642 45.948 C 34.49 46.31 32.334 46.739 30.261 47.447 C 28.814 47.891 27.396 48.378 25.981 48.92 C 24.578 49.511 23.167 50.073 21.836 50.828 C 19.721 51.952 17.621 53.124 15.619 54.455 C 13.959 55.653 12.353 56.939 10.793 58.272 C 8.984 59.831 7.292 61.527 5.667 63.289 C 5.295 63.663 4.644 63.946 4.604 64.543 C 4.282 64.6 37.314 47.463 38.815 48.629 M 38.991 50.971 C 36.734 49.186 4.404 65.085 4.604 65.661 C 4.364 65.803 4.15 65.982 4.14 66.316 C 4.325 66.917 5.165 66.668 5.585 66.479 C 6.411 66.11 7.3 66.042 8.148 65.743 C 9.901 65.17 11.618 64.498 13.274 63.671 C 14.781 62.972 16.244 62.114 17.719 61.353 C 19.553 60.637 21.41 60.025 23.336 59.635 C 24.499 59.369 25.708 59.227 26.88 59.008 C 29.755 58.555 32.638 58.39 35.524 58.027 C 36.803 57.873 38.087 57.708 39.372 57.574 " stroke-width="1"/>
          <path id="path6744" fill="#356804" stroke="none" d="M 39.345 42.433 C 36.288 42.534 33.328 42.893 30.507 43.467 C 28.913 44.041 27.352 44.656 25.79 45.321 C 24.347 46.04 22.981 46.937 21.618 47.802 C 19.766 49.149 17.818 50.372 15.974 51.728 C 13.834 53.377 11.844 55.22 9.893 57.1 C 9.05 57.91 8.282 58.778 7.576 59.717 C 6.417 61.196 5.307 62.721 4.276 64.298 C 4.246 64.445 4.221 64.587 4.195 64.734 C 5.296 63.359 6.439 62.013 7.548 60.644 C 9.001 58.961 10.349 57.168 12.047 55.736 C 13.358 54.548 14.714 53.397 16.192 52.437 C 17.248 51.73 18.25 50.935 19.355 50.31 C 21.351 49.123 23.391 47.971 25.435 46.875 C 26.269 46.459 27.064 45.913 27.971 45.675 C 30.627 44.735 33.369 44.137 36.096 43.467 C 37.165 43.173 38.267 43.029 39.371 43.018 " stroke-width="1"/>
          <path id="Shine-2" fill="#bfef90" d="M 19.05 53.74 C 15.666 55.662 14.098 58.605 12.87 57.156 C 11.642 55.708 13.391 52.978 16.775 51.056 C 20.158 49.135 23.895 48.751 25.123 50.199 C 26.35 51.648 22.432 51.82 19.05 53.74 Z " stroke-width="1"/>
        </g>
        <path id="path7000" fill="#ee1717" stroke="#231f20" stroke-width="2.7385744338639006" stroke-linecap="butt" stroke-linejoin="round" d="M 44.6396 67.7834 C 44.6396 82.4335 42.0203 94.3099 38.7892 94.3099 C 35.558 94.3099 32.9399 82.4335 32.9399 67.7834 C 32.9399 53.1333 35.558 41.2577 38.7892 41.2577 C 42.0203 41.2577 44.6396 53.1333 44.6396 67.7834 Z "/>
        <path id="path7002" fill="#231f20" stroke="none" d="M 39.642 50.823 C 39.642 52.093 39.167 53.122 38.582 53.122 C 37.996 53.122 37.521 52.093 37.521 50.823 C 37.521 49.554 37.996 48.525 38.582 48.525 C 39.167 48.525 39.642 49.554 39.642 50.823 Z " stroke-width="1"/>
        <path id="path7002-7" fill="#231f20" stroke="none" d="M 40.526 58.778 C 40.526 60.048 40.051 61.077 39.465 61.077 C 38.88 61.077 38.405 60.048 38.405 58.778 C 38.405 57.509 38.88 56.48 39.465 56.48 C 40.051 56.48 40.526 57.509 40.526 58.778 Z " stroke-width="1"/>
        <path id="path7002-2" fill="#231f20" stroke="none" d="M 37.698 64.435 C 37.698 65.705 37.223 66.733 36.637 66.733 C 36.051 66.733 35.576 65.705 35.576 64.435 C 35.576 63.166 36.051 62.137 36.637 62.137 C 37.223 62.137 37.698 63.166 37.698 64.435 Z " stroke-width="1"/>
        <path id="path7002-8" fill="#231f20" stroke="none" d="M 41.587 68.501 C 41.587 69.77 41.112 70.799 40.526 70.799 C 39.94 70.799 39.465 69.77 39.465 68.501 C 39.465 67.232 39.94 66.203 40.526 66.203 C 41.112 66.203 41.587 67.232 41.587 68.501 Z " stroke-width="1"/>
        <path id="path7002-5" fill="#231f20" stroke="none" d="M 39.996 86.356 C 39.996 87.625 39.521 88.654 38.935 88.654 C 38.349 88.654 37.874 87.625 37.874 86.356 C 37.874 85.086 38.349 84.058 38.935 84.058 C 39.521 84.058 39.996 85.086 39.996 86.356 Z " stroke-width="1"/>
        <path id="path7002-0" fill="#231f20" stroke="none" d="M 41.41 79.108 C 41.41 80.377 40.935 81.406 40.349 81.406 C 39.764 81.406 39.289 80.377 39.289 79.108 C 39.289 77.839 39.764 76.81 40.349 76.81 C 40.935 76.81 41.41 77.839 41.41 79.108 Z " stroke-width="1"/>
        <path id="path7002-3" fill="#231f20" stroke="none" d="M 38.228 74.865 C 38.228 76.134 37.753 77.163 37.167 77.163 C 36.582 77.163 36.107 76.134 36.107 74.865 C 36.107 73.596 36.582 72.567 37.167 72.567 C 37.753 72.567 38.228 73.596 38.228 74.865 Z " stroke-width="1"/>
      </g>
    </g>
  </g>
  <g id="ID0.9171332279220223">
    <g id="layer1">
      <g id="g7059">
        <g id="g6991">
          <path id="path4727-5" fill="#4e9a06" stroke="#231f20" stroke-width="2.7253489044488144" d="M 57.2399 40.2664 C 77.7042 42.5554 93.1196 55.4414 91.9777 69.6205 C 90.836 83.7986 73.5572 94.0517 52.9903 93.0365 "/>
          <path id="path6968" fill="#356804" stroke="none" d="M 56.8065 45.3119 C 56.8805 45.3148 56.9544 45.3187 57.0283 45.3227 C 58.491 45.3853 59.9241 45.8288 61.3347 46.1892 C 63.3084 46.7333 65.2133 47.4456 67.1423 48.1336 C 68.1343 48.5355 69.1644 48.9114 70.1001 49.4392 C 71.3799 50.2656 72.6032 51.1708 73.8888 51.9876 C 75.8933 53.3318 77.8639 54.7245 79.6954 56.3116 C 82.7896 59.4853 85.8059 62.792 88.5474 66.2974 L 90.4858 68.7248 C 90.4964 68.4317 90.5057 68.1416 90.5021 67.8503 C 90.4986 67.844 90.5077 67.8297 90.5042 67.8234 C 90.4149 67.6617 90.3093 67.5037 90.2424 67.3368 C 89.1479 65.2061 87.9872 63.1132 86.6083 61.1632 C 85.486 59.4646 84.2662 57.8435 82.9227 56.3257 C 81.5582 54.7321 80.2528 53.0649 78.6732 51.6887 C 77.4188 50.5473 76.15 49.4349 74.7758 48.4474 C 73.2647 47.3164 71.7246 46.2223 70.109 45.2545 C 67.9757 44.1386 65.714 43.2843 63.4709 42.4225 C 61.435 41.9405 59.3265 41.564 57.1574 41.3151 " stroke-width="0.999999983286109"/>
          <path id="path6966" fill="#356804" stroke="none" d="M 55.691 59.2132 C 56.9583 59.248 58.2253 59.4233 59.4507 59.7417 C 61.7421 60.2282 64.0528 60.5607 66.3513 61.0087 C 67.6363 61.2225 68.9169 61.4912 70.167 61.8637 C 72.6954 62.7455 75.1888 63.7128 77.6452 64.7904 C 79.5011 65.6763 81.2918 66.7354 83.1645 67.5875 C 84.564 68.272 86.0139 68.8051 87.5226 69.1694 C 88.1188 69.3148 88.6975 69.5911 89.2795 69.7764 L 89.2795 69.7764 C 89.3881 69.8112 89.4888 69.8565 89.5989 69.8844 C 90.329 69.7506 89.9854 68.6845 89.3649 68.7158 C 88.6061 68.2464 87.8373 67.7521 87.1347 67.1959 C 83.8261 64.8407 80.5274 62.4874 77.1339 60.2638 C 75.5887 59.108 73.875 58.2497 72.1353 57.4535 C 69.979 56.5986 67.754 55.8867 65.5675 55.1197 C 63.4483 54.4515 61.3126 53.8511 59.1409 53.3983 C 58.1518 53.2856 57.1647 53.2221 56.1763 53.1746 " stroke-width="0.999999983286109"/>
          <path id="path6960" fill="#356804" stroke="none" d="M 54.5418 73.5341 C 55.4634 73.5261 56.3838 73.5209 57.3018 73.5196 C 60.9073 73.5843 64.4971 73.8553 68.1033 73.8979 C 69.5405 73.8792 70.9994 73.8141 72.4231 73.5886 C 73.5209 73.4604 74.6374 73.3877 75.6954 73.0315 C 77.1017 72.6853 78.4492 72.1598 79.8014 71.6386 C 81.6527 71.0252 83.5802 70.6969 85.5185 70.6222 C 86.5025 70.5992 87.4747 70.4868 88.4577 70.4757 C 88.8991 70.4761 89.7469 70.8113 89.8738 70.2075 C 89.7272 69.9479 89.5345 69.8371 89.2795 69.7764 C 88.8543 69.6749 88.2955 69.7363 87.9006 69.5831 C 85.7536 69.1724 83.6298 68.7978 81.5307 68.1672 C 79.7863 67.6776 78.088 66.9911 76.3638 66.4379 C 75.72 66.2727 75.0917 66.0897 74.4268 66.0361 C 73.3471 65.902 72.2424 65.7037 71.1566 65.8821 C 70.4571 66.0345 69.9697 66.6182 69.3726 66.9694 C 68.7463 67.2972 68.0029 67.2464 67.3348 67.1334 C 65.3035 66.8313 63.2942 66.4428 61.2568 66.1794 C 59.2247 65.9746 57.186 65.9258 55.1469 65.8329 " stroke-width="0.999999983286109"/>
          <path id="path6958" fill="#356804" stroke="none" d="M 53.3101 88.8035 C 53.4734 88.8197 53.6374 88.8259 53.7976 88.8298 L 53.7976 88.8298 C 54.5515 88.8493 55.2957 88.7387 56.0505 88.7102 C 58.2246 88.5221 60.4081 88.2676 62.5312 87.7282 C 64.0092 87.4018 65.4617 87.0302 66.9156 86.6036 C 68.3615 86.1271 69.8131 85.6802 71.2004 85.0344 C 73.3988 84.0838 75.5861 83.0842 77.6885 81.9182 C 79.4393 80.8573 81.1433 79.7044 82.8053 78.5009 C 84.7336 77.0921 86.5563 75.5374 88.3175 73.9115 C 88.7183 73.5686 89.3899 73.3388 89.4777 72.7469 C 89.8032 72.7159 55.5022 87.1461 54.0997 85.8634 M 54.1122 83.5149 C 56.2187 85.4753 89.7206 72.2227 89.5674 71.6325 C 89.8181 71.5102 90.0457 71.349 90.0825 71.0169 C 89.9464 70.403 89.0891 70.5837 88.6553 70.7384 C 87.8023 71.0399 86.9107 71.0363 86.0415 71.2663 C 84.2481 71.6967 82.4827 72.2287 80.7657 72.9201 C 79.2074 73.4959 77.6803 74.2337 76.149 74.8739 C 74.2634 75.4403 72.3633 75.9013 70.4122 76.1354 C 69.2316 76.3072 68.0151 76.3517 66.8293 76.4759 C 63.9272 76.6967 61.0403 76.6298 58.1344 76.7599 C 56.8472 76.8108 55.5541 76.8722 54.2625 76.9026 " stroke-width="0.999999983286109"/>
          <path id="path6744" fill="#356804" stroke="none" d="M 53.074 91.9969 C 56.1293 92.1416 59.1085 92.0214 61.9665 91.6757 C 63.6014 91.2315 65.2068 90.7437 66.8171 90.2063 C 68.3132 89.6054 69.7468 88.821 71.1748 88.0682 C 73.1289 86.8742 75.1688 85.8115 77.1157 84.6079 C 79.3812 83.136 81.5127 81.4587 83.6083 79.7413 C 84.5136 79.0016 85.3488 78.1981 86.1279 77.3188 C 87.4019 75.9376 88.6307 74.5066 89.785 73.0174 C 89.8267 72.8733 89.863 72.7338 89.9007 72.5894 C 88.6929 73.8715 87.4455 75.1214 86.2302 76.397 C 84.6468 77.9579 83.1592 79.637 81.3518 80.928 C 79.9496 82.007 78.5056 83.0454 76.9553 83.8837 C 75.846 84.5036 74.7834 85.2156 73.6318 85.7499 C 71.547 86.7729 69.4211 87.7574 67.2957 88.6858 C 66.431 89.0335 65.5947 89.5139 64.6716 89.6783 C 61.9487 90.4021 59.1675 90.7781 56.3955 91.227 C 55.3064 91.4343 54.1964 91.4893 53.0951 91.4117 " stroke-width="0.999999983286109"/>
          <path id="Shine-2" fill="#bfef90" d="M 74.1782 82.3285 C 77.7056 80.6844 79.5048 77.8767 80.6125 79.4196 C 81.7203 80.9615 79.7578 83.5423 76.2304 85.1865 C 72.7042 86.8297 68.9484 86.9125 67.8406 85.3706 C 66.7339 83.8278 70.653 83.9709 74.1782 82.3285 Z " stroke-width="0.999999983286109"/>
        </g>
        <path id="path7000" fill="#ee1717" stroke="#231f20" stroke-width="2.738574372770845" stroke-linecap="butt" stroke-linejoin="round" d="M 49.8062 66.2869 C 50.9822 51.6841 54.5463 40.0563 57.767 40.3157 C 60.9877 40.575 62.6441 52.6232 61.4681 67.226 C 60.2922 81.8289 56.7292 93.456 53.5085 93.1967 C 50.2878 92.9373 48.6303 80.8897 49.8062 66.2869 Z "/>
        <path id="path7002" fill="#231f20" stroke="none" d="M 53.4417 83.5951 C 53.5436 82.3292 54.0997 81.3417 54.6828 81.3886 C 55.2669 81.4357 55.6578 82.4995 55.5558 83.7654 C 55.454 85.0303 54.8979 86.0178 54.3138 85.9708 C 53.7307 85.9238 53.3398 84.86 53.4417 83.5951 Z " stroke-width="0.999999983286109"/>
        <path id="path7002-7" fill="#231f20" stroke="none" d="M 53.1991 75.5948 C 53.301 74.3289 53.8571 73.3414 54.4412 73.3884 C 55.0243 73.4354 55.4152 74.4992 55.3132 75.7651 C 55.2114 77.03 54.6553 78.0175 54.0722 77.9706 C 53.4881 77.9235 53.0972 76.8597 53.1991 75.5948 Z " stroke-width="0.999999983286109"/>
        <path id="path7002-2" fill="#231f20" stroke="none" d="M 56.472 70.1831 C 56.574 68.9172 57.13 67.9306 57.7141 67.9777 C 58.2982 68.0247 58.6891 69.0875 58.5872 70.3534 C 58.4853 71.6183 57.9293 72.6059 57.3451 72.5588 C 56.761 72.5118 56.3702 71.448 56.472 70.1831 Z " stroke-width="0.999999983286109"/>
        <path id="path7002-8" fill="#231f20" stroke="none" d="M 52.922 65.818 C 53.0238 64.5531 53.5799 63.5656 54.164 63.6126 C 54.7481 63.6597 55.139 64.7235 55.0371 65.9884 C 54.9352 67.2533 54.3792 68.2408 53.7951 68.1938 C 53.211 68.1468 52.8201 67.0829 52.922 65.818 Z " stroke-width="0.999999983286109"/>
        <path id="path7002-5" fill="#231f20" stroke="none" d="M 55.9411 48.1484 C 56.0429 46.8835 56.599 45.8959 57.1831 45.943 C 57.7672 45.99 58.1581 47.0538 58.0562 48.3187 C 57.9543 49.5846 57.3983 50.5712 56.8142 50.5241 C 56.2301 50.4771 55.8391 49.4143 55.9411 48.1484 Z " stroke-width="0.999999983286109"/>
        <path id="path7002-0" fill="#231f20" stroke="none" d="M 53.9498 55.2595 C 54.0517 53.9946 54.6077 53.007 55.1919 53.0541 C 55.775 53.101 56.1658 54.1648 56.064 55.4297 C 55.9621 56.6946 55.406 57.6822 54.8229 57.6352 C 54.2388 57.5882 53.848 56.5244 53.9498 55.2595 Z " stroke-width="0.999999983286109"/>
        <path id="path7002-3" fill="#231f20" stroke="none" d="M 56.781 59.7442 C 56.8828 58.4793 57.4389 57.4918 58.023 57.5388 C 58.6061 57.5857 58.997 58.6496 58.8951 59.9145 C 58.7933 61.1794 58.2372 62.1669 57.6541 62.12 C 57.07 62.0729 56.6791 61.0091 56.781 59.7442 Z " stroke-width="0.999999983286109"/>
      </g>
    </g>
  </g>
  <path id="ID0.9953747545368969" fill="#FFFF00" stroke="#FF9400" stroke-width="2" stroke-linecap="round" d="M 61 5 C 58.669 8.328 56.362 13.686 54 19 C 53.41 20.329 53.277 20.309 53 21 C 52.609 21.978 52.333 23.001 52 24 C 51.667 24.999 51.289 25.987 51 27 C 50.623 28.32 50 29.627 50 31 C 50 31.745 50.854 32.27 51 33 C 51.196 33.98 51.316 35.052 51 36 C 49.963 39.111 48.57 42.121 47 45 C 46.549 45.827 44.757 46.515 45 47 C 45.257 47.515 47.294 46.294 48 47 C 48.706 47.706 48.218 48.331 48 50 C 47.129 56.678 46.321 63.396 45 70 C 44.648 71.758 43.706 73.352 43 75 C 42.707 75.684 42.277 76.309 42 77 C 41.609 77.978 41.391 79.022 41 80 C 40.723 80.691 40.333 81.334 40 82 C 39.334 83.332 38.616 84.644 38 86 C 36.951 88.309 36.03 90.683 35 93 C 34.698 93.68 34.105 94.263 34 95 C 33.765 96.648 34.166 98.343 34 100 C 33.831 101.69 33.466 103.367 33 105 C 32.795 105.716 32.177 107 32 107 C 31.823 107 32 105.666 32 105 C 32 104.334 31.817 103.64 32 103 C 32.493 101.276 33.272 99.639 34 98 C 34.605 96.639 35.413 95.369 36 94 C 36.415 93.032 36.458 91.903 37 91 C 37.485 90.192 38.579 89.842 39 89 C 39.298 88.404 38.891 87.657 39 87 C 39.226 85.646 39.623 84.32 40 83 C 40.289 81.987 40.745 81.022 41 80 C 41.412 78.353 41.534 76.633 42 75 C 42.205 74.284 42.667 73.666 43 73 C 43.333 72.334 43.765 71.706 44 71 C 44.434 69.697 44.566 68.303 45 67 C 45.235 66.294 45.667 65.666 46 65 C 46.333 64.334 46.723 63.691 47 63 C 47.391 62.022 47.609 60.978 48 60 C 48.277 59.309 48.667 58.666 49 58 C 49.333 57.334 49.667 56.666 50 56 C 50.333 55.334 50.819 54.722 51 54 C 51.162 53.354 50.869 52.653 51 52 C 51.207 50.967 51.793 50.033 52 49 C 52.131 48.347 51.838 47.646 52 47 C 52.181 46.278 52.723 45.691 53 45 C 53.391 44.022 53.609 42.978 54 42 C 54.277 41.309 54.819 40.722 55 40 C 55.162 39.354 55.109 38.657 55 38 C 54.774 36.646 54.105 35.369 54 34 C 53.77 31.012 53.052 27.843 54 25 C 54.527 23.42 56.934 23.279 58 22 C 58.674 21.191 58.69 20.006 59 19 C 60.022 15.677 61.272 12.399 62 9 C 62.279 7.698 62.219 6.314 62 5 C 61.878 4.266 61.333 3.666 61 3 C 60.917 2.834 61.583 1.668 61 3 Z "/>
  <path id="ID0.4310009153559804" fill="none" stroke="#FFFF00" stroke-width="2" stroke-linecap="round" d="M 52 47 L 52.3 47.3 "/>
</svg>