<svg xmlns="http://www.w3.org/2000/svg" xmlns:xlink="http://www.w3.org/1999/xlink" version="1.1" width="24.66821256972787" height="186.65451017714975" viewBox="-6.292956176884162 -6.196056175715911 24.66821256972787 186.65451017714975">
  <!-- Exported by Scratch - http://scratch.mit.edu/ -->
  <g id="ID0.9092578641138971">
    <g id="Layer1">
      <g id="ID0.8409866685979068">
        <path id="ID0.25551072182133794" fill="rgb(159,120,82)" d="M 0.1573 0.3476 L 2.125 0.3476 L 2.125 88.3582 L 0.1573 88.3582 L 0.1573 0.3476 Z " stroke-width="12.900512374415372"/>
      </g>
      <g id="ID0.868505050893873">
        <path id="ID0.1821539644151926" fill="rgb(118,82,59)" d="M 0.1665 0.3476 L 1.5618 0.3476 L 1.5618 88.3582 L 0.1665 88.3582 L 0.1665 0.3476 Z " stroke-width="12.89528264604606"/>
      </g>
      <g id="ID0.4489470715634525">
        <path id="ID0.21378408605232835" fill="rgb(159,120,82)" d="M 9.9573 0.2976 L 11.925 0.2976 L 11.925 88.3082 L 9.9573 88.3082 L 9.9573 0.2976 Z " stroke-width="12.900512374415372"/>
      </g>
      <path id="ID0.32009924575686455" fill="rgb(159,120,82)" d="M 2.125 3.725 L 9.9426 3.725 L 9.9426 5.26 L 2.125 5.26 L 2.125 3.725 Z " stroke-width="0.8782633900731294"/>
      <g id="ID0.684830510057509">
        <path id="ID0.7242745612747967" fill="rgb(159,120,82)" d="M 2.125 9.875 L 9.9426 9.875 L 9.9426 11.41 L 2.125 11.41 L 2.125 9.875 Z " stroke-width="0.8782633900731294"/>
      </g>
      <g id="ID0.5505844647996128">
        <path id="ID0.12232529604807496" fill="rgb(159,120,82)" d="M 2.125 16.075 L 9.9426 16.075 L 9.9426 17.61 L 2.125 17.61 L 2.125 16.075 Z " stroke-width="0.8782633900731294"/>
      </g>
      <g id="ID0.8723022155463696">
        <path id="ID0.5911552044562995" fill="rgb(159,120,82)" d="M 2.125 22.075 L 9.9426 22.075 L 9.9426 23.61 L 2.125 23.61 L 2.125 22.075 Z " stroke-width="0.8782633900731294"/>
      </g>
      <g id="ID0.5547113749198616">
        <path id="ID0.007348245941102505" fill="rgb(159,120,82)" d="M 2.125 28.225 L 9.9426 28.225 L 9.9426 29.76 L 2.125 29.76 L 2.125 28.225 Z " stroke-width="0.8782633900731294"/>
      </g>
      <g id="ID0.2504728394560516">
        <path id="ID0.21900116745382547" fill="rgb(159,120,82)" d="M 2.125 34.375 L 9.9426 34.375 L 9.9426 35.91 L 2.125 35.91 L 2.125 34.375 Z " stroke-width="0.8782633900731294"/>
      </g>
      <g id="ID0.7319163270294666">
        <path id="ID0.8013246832415462" fill="rgb(159,120,82)" d="M 2.125 40.525 L 9.9426 40.525 L 9.9426 42.06 L 2.125 42.06 L 2.125 40.525 Z " stroke-width="0.8782633900731294"/>
      </g>
      <g id="ID0.6548392223194242">
        <path id="ID0.32993252016603947" fill="rgb(159,120,82)" d="M 2.125 46.525 L 9.9426 46.525 L 9.9426 48.06 L 2.125 48.06 L 2.125 46.525 Z " stroke-width="0.8782633900731294"/>
      </g>
      <g id="ID0.6168551095761359">
        <path id="ID0.7301737018860877" fill="rgb(159,120,82)" d="M 2.125 52.625 L 9.9426 52.625 L 9.9426 54.16 L 2.125 54.16 L 2.125 52.625 Z " stroke-width="0.8782633900731294"/>
      </g>
      <g id="ID0.09155781799927354">
        <path id="ID0.43361929850652814" fill="rgb(159,120,82)" d="M 2.125 58.875 L 9.9426 58.875 L 9.9426 60.41 L 2.125 60.41 L 2.125 58.875 Z " stroke-width="0.8782633900731294"/>
      </g>
      <g id="ID0.08298376621678472">
        <path id="ID0.7662436114624143" fill="rgb(159,120,82)" d="M 2.125 64.925 L 9.9426 64.925 L 9.9426 66.46 L 2.125 66.46 L 2.125 64.925 Z " stroke-width="0.8782633900731294"/>
      </g>
      <g id="ID0.13806468853726983">
        <path id="ID0.22542423848062754" fill="rgb(159,120,82)" d="M 2.125 71.075 L 9.9426 71.075 L 9.9426 72.61 L 2.125 72.61 L 2.125 71.075 Z " stroke-width="0.8782633900731294"/>
      </g>
      <g id="ID0.23476864444091916">
        <path id="ID0.18420424032956362" fill="rgb(159,120,82)" d="M 2.125 77.225 L 9.9426 77.225 L 9.9426 78.76 L 2.125 78.76 L 2.125 77.225 Z " stroke-width="0.8782633900731294"/>
      </g>
      <g id="ID0.5259545906446874">
        <path id="ID0.7086229138076305" fill="rgb(159,120,82)" d="M 2.125 83.325 L 9.9426 83.325 L 9.9426 84.86 L 2.125 84.86 L 2.125 83.325 Z " stroke-width="0.8782633900731294"/>
      </g>
      <g id="ID0.360510413069278">
        <path id="ID0.375364248175174" fill="rgb(118,82,59)" d="M 2.1699 84.0875 L 9.9626 84.0875 L 9.9626 84.855 L 2.1699 84.855 L 2.1699 84.0875 Z " stroke-width="0.6281842553919539"/>
      </g>
      <g id="ID0.7864754754118621">
        <path id="ID0.724696624558419" fill="rgb(118,82,59)" d="M 9.94 88.2638 L 9.94 84.07 L 10.5054 84.07 L 10.5054 88.2638 L 9.94 88.2638 Z " stroke-width="0.38200493546071246"/>
      </g>
      <g id="ID0.31588041549548507">
        <path id="ID0.053899229504168034" fill="rgb(118,82,59)" d="M 9.94 83.2908 L 9.94 77.9857 L 10.5054 77.9857 L 10.5054 83.2908 L 9.94 83.2908 Z " stroke-width="0.4390833076833377"/>
      </g>
      <g id="ID0.6679748916067183">
        <path id="ID0.8765082634054124" fill="rgb(118,82,59)" d="M 9.94 77.1967 L 9.94 71.8098 L 10.5054 71.8098 L 10.5054 77.1967 L 9.94 77.1967 Z " stroke-width="0.4434841684528715"/>
      </g>
      <g id="ID0.8562563792802393">
        <path id="ID0.40806517377495766" fill="rgb(118,82,59)" d="M 9.94 71.0491 L 9.94 65.6865 L 10.5054 65.6865 L 10.5054 71.0491 L 9.94 71.0491 Z " stroke-width="0.4421723025819933"/>
      </g>
      <g id="ID0.9705270850099623">
        <path id="ID0.5805971096269786" fill="rgb(118,82,59)" d="M 9.94 64.9411 L 9.94 59.6242 L 10.5054 59.6242 L 10.5054 64.9411 L 9.94 64.9411 Z " stroke-width="0.4397171529895691"/>
      </g>
      <g id="ID0.20753085799515247">
        <path id="ID0.4923617676831782" fill="rgb(118,82,59)" d="M 9.94 58.8296 L 9.94 53.4029 L 10.5054 53.4029 L 10.5054 58.8296 L 9.94 58.8296 Z " stroke-width="0.4456307931965938"/>
      </g>
      <g id="ID0.05471742385998368">
        <path id="ID0.8812767225317657" fill="rgb(118,82,59)" d="M 9.94 52.6431 L 9.94 47.2791 L 10.5054 47.2791 L 10.5054 52.6431 L 9.94 52.6431 Z " stroke-width="0.44224887119451256"/>
      </g>
      <g id="ID0.20234000450000167">
        <path id="ID0.5338253993541002" fill="rgb(118,82,59)" d="M 9.94 46.5355 L 9.94 41.2886 L 10.5054 41.2886 L 10.5054 46.5355 L 9.94 46.5355 Z " stroke-width="0.43596748392604545"/>
      </g>
      <g id="ID0.39400766836479306">
        <path id="ID0.3320411373861134" fill="rgb(118,82,59)" d="M 9.94 40.5312 L 9.94 35.1644 L 10.5054 35.1644 L 10.5054 40.5312 L 9.94 40.5312 Z " stroke-width="0.4424009052736446"/>
      </g>
      <g id="ID0.7897734958678484">
        <path id="ID0.6847720118239522" fill="rgb(118,82,59)" d="M 9.94 34.3796 L 9.94 28.9529 L 10.5054 28.9529 L 10.5054 34.3796 L 9.94 34.3796 Z " stroke-width="0.4456307931965938"/>
      </g>
      <g id="ID0.0785020082257688">
        <path id="ID0.11029225960373878" fill="rgb(118,82,59)" d="M 9.94 28.1833 L 9.94 22.8645 L 10.5054 22.8645 L 10.5054 28.1833 L 9.94 28.1833 Z " stroke-width="0.43981685900337375"/>
      </g>
      <g id="ID0.1338647110387683">
        <path id="ID0.705792885273695" fill="rgb(118,82,59)" d="M 9.94 22.1143 L 9.94 16.8386 L 10.5054 16.8386 L 10.5054 22.1143 L 9.94 22.1143 Z " stroke-width="0.437509099728693"/>
      </g>
      <g id="ID0.05025715148076415">
        <path id="ID0.23603846644982696" fill="rgb(118,82,59)" d="M 9.94 16.0796 L 9.94 10.6529 L 10.5054 10.6529 L 10.5054 16.0796 L 9.94 16.0796 Z " stroke-width="0.4456307931965938"/>
      </g>
      <g id="ID0.5563605260103941">
        <path id="ID0.3339192923158407" fill="rgb(118,82,59)" d="M 9.94 9.8796 L 9.94 4.4529 L 10.5054 4.4529 L 10.5054 9.8796 L 9.94 9.8796 Z " stroke-width="0.4456307931965938"/>
      </g>
      <g id="ID0.47830368718132377">
        <path id="ID0.2249301658011973" fill="rgb(118,82,59)" d="M 9.94 3.7211 L 9.94 0.2542 L 10.5054 0.2542 L 10.5054 3.7211 L 9.94 3.7211 Z " stroke-width="0.34813812038675973"/>
      </g>
      <g id="ID0.15713683934882283">
        <path id="ID0.7103831525892019" fill="rgb(118,82,59)" d="M 2.175 77.9875 L 9.9926 77.9875 L 9.9926 78.755 L 2.175 78.755 L 2.175 77.9875 Z " stroke-width="0.629560626423497"/>
      </g>
      <g id="ID0.47733321134001017">
        <path id="ID0.10141715221107006" fill="rgb(118,82,59)" d="M 2.125 71.8375 L 9.9426 71.8375 L 9.9426 72.605 L 2.125 72.605 L 2.125 71.8375 Z " stroke-width="0.629560626423497"/>
      </g>
      <g id="ID0.809539049398154">
        <path id="ID0.5022284188307822" fill="rgb(118,82,59)" d="M 2.125 65.7375 L 9.9426 65.7375 L 9.9426 66.505 L 2.125 66.505 L 2.125 65.7375 Z " stroke-width="0.629560626423497"/>
      </g>
      <g id="ID0.4198620249517262">
        <path id="ID0.6900907391682267" fill="rgb(118,82,59)" d="M 2.125 59.6375 L 9.9426 59.6375 L 9.9426 60.405 L 2.125 60.405 L 2.125 59.6375 Z " stroke-width="0.629560626423497"/>
      </g>
      <g id="ID0.13108850037679076">
        <path id="ID0.9981262651272118" fill="rgb(118,82,59)" d="M 2.125 53.3875 L 9.9426 53.3875 L 9.9426 54.155 L 2.125 54.155 L 2.125 53.3875 Z " stroke-width="0.629560626423497"/>
      </g>
      <g id="ID0.5749983815476298">
        <path id="ID0.8723771995864809" fill="rgb(118,82,59)" d="M 2.125 47.2875 L 9.9426 47.2875 L 9.9426 48.055 L 2.125 48.055 L 2.125 47.2875 Z " stroke-width="0.629560626423497"/>
      </g>
      <g id="ID0.13260484021157026">
        <path id="ID0.4170311917550862" fill="rgb(118,82,59)" d="M 2.125 41.2875 L 9.9426 41.2875 L 9.9426 42.055 L 2.125 42.055 L 2.125 41.2875 Z " stroke-width="0.629560626423497"/>
      </g>
      <g id="ID0.3768481435254216">
        <path id="ID0.9225793951191008" fill="rgb(118,82,59)" d="M 2.125 35.1375 L 9.9426 35.1375 L 9.9426 35.905 L 2.125 35.905 L 2.125 35.1375 Z " stroke-width="0.629560626423497"/>
      </g>
      <g id="ID0.10434694588184357">
        <path id="ID0.38663808023557067" fill="rgb(118,82,59)" d="M 2.125 28.9875 L 9.9426 28.9875 L 9.9426 29.755 L 2.125 29.755 L 2.125 28.9875 Z " stroke-width="0.629560626423497"/>
      </g>
      <g id="ID0.3726303349249065">
        <path id="ID0.6503470749594271" fill="rgb(118,82,59)" d="M 2.125 22.8875 L 9.9426 22.8875 L 9.9426 23.655 L 2.125 23.655 L 2.125 22.8875 Z " stroke-width="0.629560626423497"/>
      </g>
      <g id="ID0.9281168542802334">
        <path id="ID0.030910343397408724" fill="rgb(118,82,59)" d="M 2.175 16.8375 L 9.9926 16.8375 L 9.9926 17.605 L 2.175 17.605 L 2.175 16.8375 Z " stroke-width="0.629560626423497"/>
      </g>
      <g id="ID0.26947961933910847">
        <path id="ID0.08838216960430145" fill="rgb(118,82,59)" d="M 2.175 10.6375 L 9.9926 10.6375 L 9.9926 11.405 L 2.175 11.405 L 2.175 10.6375 Z " stroke-width="0.629560626423497"/>
      </g>
      <g id="ID0.4441922032274306">
        <path id="ID0.5617594118230045" fill="rgb(118,82,59)" d="M 2.175 4.4875 L 9.9926 4.4875 L 9.9926 5.255 L 2.175 5.255 L 2.175 4.4875 Z " stroke-width="0.629560626423497"/>
      </g>
    </g>
    <g id="Layer1">
      <g id="ID0.8409866685979068">
        <path id="ID0.25551072182133794" fill="rgb(159,120,82)" d="M 0.1573 85.9976 L 2.125 85.9976 L 2.125 174.0082 L 0.1573 174.0082 L 0.1573 85.9976 Z " stroke-width="12.900512374415372"/>
      </g>
      <g id="ID0.868505050893873">
        <path id="ID0.1821539644151926" fill="rgb(118,82,59)" d="M 0.1665 85.9976 L 1.5618 85.9976 L 1.5618 174.0082 L 0.1665 174.0082 L 0.1665 85.9976 Z " stroke-width="12.89528264604606"/>
      </g>
      <g id="ID0.4489470715634525">
        <path id="ID0.21378408605232835" fill="rgb(159,120,82)" d="M 9.9573 85.9476 L 11.925 85.9476 L 11.925 173.9582 L 9.9573 173.9582 L 9.9573 85.9476 Z " stroke-width="12.900512374415372"/>
      </g>
      <path id="ID0.32009924575686455" fill="rgb(159,120,82)" d="M 2.125 89.375 L 9.9426 89.375 L 9.9426 90.91 L 2.125 90.91 L 2.125 89.375 Z " stroke-width="0.8782633900731294"/>
      <g id="ID0.684830510057509">
        <path id="ID0.7242745612747967" fill="rgb(159,120,82)" d="M 2.125 95.525 L 9.9426 95.525 L 9.9426 97.06 L 2.125 97.06 L 2.125 95.525 Z " stroke-width="0.8782633900731294"/>
      </g>
      <g id="ID0.5505844647996128">
        <path id="ID0.12232529604807496" fill="rgb(159,120,82)" d="M 2.125 101.725 L 9.9426 101.725 L 9.9426 103.26 L 2.125 103.26 L 2.125 101.725 Z " stroke-width="0.8782633900731294"/>
      </g>
      <g id="ID0.8723022155463696">
        <path id="ID0.5911552044562995" fill="rgb(159,120,82)" d="M 2.125 107.725 L 9.9426 107.725 L 9.9426 109.26 L 2.125 109.26 L 2.125 107.725 Z " stroke-width="0.8782633900731294"/>
      </g>
      <g id="ID0.5547113749198616">
        <path id="ID0.007348245941102505" fill="rgb(159,120,82)" d="M 2.125 113.875 L 9.9426 113.875 L 9.9426 115.41 L 2.125 115.41 L 2.125 113.875 Z " stroke-width="0.8782633900731294"/>
      </g>
      <g id="ID0.2504728394560516">
        <path id="ID0.21900116745382547" fill="rgb(159,120,82)" d="M 2.125 120.025 L 9.9426 120.025 L 9.9426 121.56 L 2.125 121.56 L 2.125 120.025 Z " stroke-width="0.8782633900731294"/>
      </g>
      <g id="ID0.7319163270294666">
        <path id="ID0.8013246832415462" fill="rgb(159,120,82)" d="M 2.125 126.175 L 9.9426 126.175 L 9.9426 127.71 L 2.125 127.71 L 2.125 126.175 Z " stroke-width="0.8782633900731294"/>
      </g>
      <g id="ID0.6548392223194242">
        <path id="ID0.32993252016603947" fill="rgb(159,120,82)" d="M 2.125 132.175 L 9.9426 132.175 L 9.9426 133.71 L 2.125 133.71 L 2.125 132.175 Z " stroke-width="0.8782633900731294"/>
      </g>
      <g id="ID0.6168551095761359">
        <path id="ID0.7301737018860877" fill="rgb(159,120,82)" d="M 2.125 138.275 L 9.9426 138.275 L 9.9426 139.81 L 2.125 139.81 L 2.125 138.275 Z " stroke-width="0.8782633900731294"/>
      </g>
      <g id="ID0.09155781799927354">
        <path id="ID0.43361929850652814" fill="rgb(159,120,82)" d="M 2.125 144.525 L 9.9426 144.525 L 9.9426 146.06 L 2.125 146.06 L 2.125 144.525 Z " stroke-width="0.8782633900731294"/>
      </g>
      <g id="ID0.08298376621678472">
        <path id="ID0.7662436114624143" fill="rgb(159,120,82)" d="M 2.125 150.575 L 9.9426 150.575 L 9.9426 152.11 L 2.125 152.11 L 2.125 150.575 Z " stroke-width="0.8782633900731294"/>
      </g>
      <g id="ID0.13806468853726983">
        <path id="ID0.22542423848062754" fill="rgb(159,120,82)" d="M 2.125 156.725 L 9.9426 156.725 L 9.9426 158.26 L 2.125 158.26 L 2.125 156.725 Z " stroke-width="0.8782633900731294"/>
      </g>
      <g id="ID0.23476864444091916">
        <path id="ID0.18420424032956362" fill="rgb(159,120,82)" d="M 2.125 162.875 L 9.9426 162.875 L 9.9426 164.41 L 2.125 164.41 L 2.125 162.875 Z " stroke-width="0.8782633900731294"/>
      </g>
      <g id="ID0.5259545906446874">
        <path id="ID0.7086229138076305" fill="rgb(159,120,82)" d="M 2.125 168.975 L 9.9426 168.975 L 9.9426 170.51 L 2.125 170.51 L 2.125 168.975 Z " stroke-width="0.8782633900731294"/>
      </g>
      <g id="ID0.360510413069278">
        <path id="ID0.375364248175174" fill="rgb(118,82,59)" d="M 2.1699 169.7375 L 9.9626 169.7375 L 9.9626 170.505 L 2.1699 170.505 L 2.1699 169.7375 Z " stroke-width="0.6281842553919539"/>
      </g>
      <g id="ID0.7864754754118621">
        <path id="ID0.724696624558419" fill="rgb(118,82,59)" d="M 9.94 173.9138 L 9.94 169.72 L 10.5054 169.72 L 10.5054 173.9138 L 9.94 173.9138 Z " stroke-width="0.38200493546071246"/>
      </g>
      <g id="ID0.31588041549548507">
        <path id="ID0.053899229504168034" fill="rgb(118,82,59)" d="M 9.94 168.9408 L 9.94 163.6357 L 10.5054 163.6357 L 10.5054 168.9408 L 9.94 168.9408 Z " stroke-width="0.4390833076833377"/>
      </g>
      <g id="ID0.6679748916067183">
        <path id="ID0.8765082634054124" fill="rgb(118,82,59)" d="M 9.94 162.8467 L 9.94 157.4598 L 10.5054 157.4598 L 10.5054 162.8467 L 9.94 162.8467 Z " stroke-width="0.4434841684528715"/>
      </g>
      <g id="ID0.8562563792802393">
        <path id="ID0.40806517377495766" fill="rgb(118,82,59)" d="M 9.94 156.6991 L 9.94 151.3365 L 10.5054 151.3365 L 10.5054 156.6991 L 9.94 156.6991 Z " stroke-width="0.4421723025819933"/>
      </g>
      <g id="ID0.9705270850099623">
        <path id="ID0.5805971096269786" fill="rgb(118,82,59)" d="M 9.94 150.5911 L 9.94 145.2742 L 10.5054 145.2742 L 10.5054 150.5911 L 9.94 150.5911 Z " stroke-width="0.4397171529895691"/>
      </g>
      <g id="ID0.20753085799515247">
        <path id="ID0.4923617676831782" fill="rgb(118,82,59)" d="M 9.94 144.4796 L 9.94 139.0529 L 10.5054 139.0529 L 10.5054 144.4796 L 9.94 144.4796 Z " stroke-width="0.4456307931965938"/>
      </g>
      <g id="ID0.05471742385998368">
        <path id="ID0.8812767225317657" fill="rgb(118,82,59)" d="M 9.94 138.2931 L 9.94 132.9291 L 10.5054 132.9291 L 10.5054 138.2931 L 9.94 138.2931 Z " stroke-width="0.44224887119451256"/>
      </g>
      <g id="ID0.20234000450000167">
        <path id="ID0.5338253993541002" fill="rgb(118,82,59)" d="M 9.94 132.1855 L 9.94 126.9386 L 10.5054 126.9386 L 10.5054 132.1855 L 9.94 132.1855 Z " stroke-width="0.43596748392604545"/>
      </g>
      <g id="ID0.39400766836479306">
        <path id="ID0.3320411373861134" fill="rgb(118,82,59)" d="M 9.94 126.1812 L 9.94 120.8144 L 10.5054 120.8144 L 10.5054 126.1812 L 9.94 126.1812 Z " stroke-width="0.4424009052736446"/>
      </g>
      <g id="ID0.7897734958678484">
        <path id="ID0.6847720118239522" fill="rgb(118,82,59)" d="M 9.94 120.0296 L 9.94 114.6029 L 10.5054 114.6029 L 10.5054 120.0296 L 9.94 120.0296 Z " stroke-width="0.4456307931965938"/>
      </g>
      <g id="ID0.0785020082257688">
        <path id="ID0.11029225960373878" fill="rgb(118,82,59)" d="M 9.94 113.8333 L 9.94 108.5145 L 10.5054 108.5145 L 10.5054 113.8333 L 9.94 113.8333 Z " stroke-width="0.43981685900337375"/>
      </g>
      <g id="ID0.1338647110387683">
        <path id="ID0.705792885273695" fill="rgb(118,82,59)" d="M 9.94 107.7643 L 9.94 102.4886 L 10.5054 102.4886 L 10.5054 107.7643 L 9.94 107.7643 Z " stroke-width="0.437509099728693"/>
      </g>
      <g id="ID0.05025715148076415">
        <path id="ID0.23603846644982696" fill="rgb(118,82,59)" d="M 9.94 101.7296 L 9.94 96.3029 L 10.5054 96.3029 L 10.5054 101.7296 L 9.94 101.7296 Z " stroke-width="0.4456307931965938"/>
      </g>
      <g id="ID0.5563605260103941">
        <path id="ID0.3339192923158407" fill="rgb(118,82,59)" d="M 9.94 95.5296 L 9.94 90.1029 L 10.5054 90.1029 L 10.5054 95.5296 L 9.94 95.5296 Z " stroke-width="0.4456307931965938"/>
      </g>
      <g id="ID0.47830368718132377">
        <path id="ID0.2249301658011973" fill="rgb(118,82,59)" d="M 9.94 89.3711 L 9.94 85.9042 L 10.5054 85.9042 L 10.5054 89.3711 L 9.94 89.3711 Z " stroke-width="0.34813812038675973"/>
      </g>
      <g id="ID0.15713683934882283">
        <path id="ID0.7103831525892019" fill="rgb(118,82,59)" d="M 2.175 163.6375 L 9.9926 163.6375 L 9.9926 164.405 L 2.175 164.405 L 2.175 163.6375 Z " stroke-width="0.629560626423497"/>
      </g>
      <g id="ID0.47733321134001017">
        <path id="ID0.10141715221107006" fill="rgb(118,82,59)" d="M 2.125 157.4875 L 9.9426 157.4875 L 9.9426 158.255 L 2.125 158.255 L 2.125 157.4875 Z " stroke-width="0.629560626423497"/>
      </g>
      <g id="ID0.809539049398154">
        <path id="ID0.5022284188307822" fill="rgb(118,82,59)" d="M 2.125 151.3875 L 9.9426 151.3875 L 9.9426 152.155 L 2.125 152.155 L 2.125 151.3875 Z " stroke-width="0.629560626423497"/>
      </g>
      <g id="ID0.4198620249517262">
        <path id="ID0.6900907391682267" fill="rgb(118,82,59)" d="M 2.125 145.2875 L 9.9426 145.2875 L 9.9426 146.055 L 2.125 146.055 L 2.125 145.2875 Z " stroke-width="0.629560626423497"/>
      </g>
      <g id="ID0.13108850037679076">
        <path id="ID0.9981262651272118" fill="rgb(118,82,59)" d="M 2.125 139.0375 L 9.9426 139.0375 L 9.9426 139.805 L 2.125 139.805 L 2.125 139.0375 Z " stroke-width="0.629560626423497"/>
      </g>
      <g id="ID0.5749983815476298">
        <path id="ID0.8723771995864809" fill="rgb(118,82,59)" d="M 2.125 132.9375 L 9.9426 132.9375 L 9.9426 133.705 L 2.125 133.705 L 2.125 132.9375 Z " stroke-width="0.629560626423497"/>
      </g>
      <g id="ID0.13260484021157026">
        <path id="ID0.4170311917550862" fill="rgb(118,82,59)" d="M 2.125 126.9375 L 9.9426 126.9375 L 9.9426 127.705 L 2.125 127.705 L 2.125 126.9375 Z " stroke-width="0.629560626423497"/>
      </g>
      <g id="ID0.3768481435254216">
        <path id="ID0.9225793951191008" fill="rgb(118,82,59)" d="M 2.125 120.7875 L 9.9426 120.7875 L 9.9426 121.555 L 2.125 121.555 L 2.125 120.7875 Z " stroke-width="0.629560626423497"/>
      </g>
      <g id="ID0.10434694588184357">
        <path id="ID0.38663808023557067" fill="rgb(118,82,59)" d="M 2.125 114.6375 L 9.9426 114.6375 L 9.9426 115.405 L 2.125 115.405 L 2.125 114.6375 Z " stroke-width="0.629560626423497"/>
      </g>
      <g id="ID0.3726303349249065">
        <path id="ID0.6503470749594271" fill="rgb(118,82,59)" d="M 2.125 108.5375 L 9.9426 108.5375 L 9.9426 109.305 L 2.125 109.305 L 2.125 108.5375 Z " stroke-width="0.629560626423497"/>
      </g>
      <g id="ID0.9281168542802334">
        <path id="ID0.030910343397408724" fill="rgb(118,82,59)" d="M 2.175 102.4875 L 9.9926 102.4875 L 9.9926 103.255 L 2.175 103.255 L 2.175 102.4875 Z " stroke-width="0.629560626423497"/>
      </g>
      <g id="ID0.26947961933910847">
        <path id="ID0.08838216960430145" fill="rgb(118,82,59)" d="M 2.175 96.2875 L 9.9926 96.2875 L 9.9926 97.055 L 2.175 97.055 L 2.175 96.2875 Z " stroke-width="0.629560626423497"/>
      </g>
      <g id="ID0.4441922032274306">
        <path id="ID0.5617594118230045" fill="rgb(118,82,59)" d="M 2.175 90.1375 L 9.9926 90.1375 L 9.9926 90.905 L 2.175 90.905 L 2.175 90.1375 Z " stroke-width="0.629560626423497"/>
      </g>
    </g>
  </g>
<defs/></svg>