<svg xmlns="http://www.w3.org/2000/svg" xmlns:xlink="http://www.w3.org/1999/xlink" version="1.1" width="90.14335632324219" height="69.0645751953125" viewBox="0.9818072319030762 -0.99321448802948 90.14335632324219 69.0645751953125">
  <!-- Exported by Scratch - http://scratch.mit.edu/ -->
  <g id="ID0.7363122683018446">
    <g id="Apple">
      <path id="Fill_1_" fill="#EC1C2C" d="M 79.083 34.402 C 79.083 48.929 66.558 60.709 51.105 60.709 C 35.652 60.709 23.128 48.934 23.128 34.402 C 23.128 19.875 35.651 13.127 51.105 13.127 C 66.557 13.126 79.083 19.876 79.083 34.402 Z " stroke-width="1"/>
      <g id="Outline_1_">
        <path id="Outline_2_" fill="#231F20" d="M 54.285 11.96 C 49.677 11.569 45.149 12.149 45.149 12.149 C 30.821 13.473 20 19.883 20 34.121 C 20 50.277 33.928 63.375 51.107 63.375 C 68.289 63.375 82.216 50.277 82.216 34.121 C 82.216 18.977 69.969 12.69 54.285 11.96 Z M 51.108 59.333 C 36.549 59.333 24.751 48.234 24.751 34.548 C 24.751 22.484 33.92 16.115 46.065 14.774 C 46.314 14.745 54.521 14.63 54.521 14.63 C 67.463 15.566 77.47 21.948 77.47 34.55 C 77.464 48.236 65.666 59.333 51.108 59.333 Z " stroke-width="1"/>
        <path id="Line" fill="#231F20" d="M 60.332 19.062 C 58.029 18.301 55.715 18.821 53.403 19.451 C 51.487 20.059 47.291 20.613 47.213 20.549 C 46.015 20.491 44.824 20.191 43.642 19.45 C 43.162 19.147 42.66 19.828 43.044 20.223 C 44.812 22.026 47.112 22.005 49.499 21.737 C 53.074 21.336 56.492 21.246 60.06 21.065 C 61.22 21.004 61.433 19.426 60.332 19.062 Z " stroke-width="1"/>
      </g>
      <path id="Shine" fill="#FFFFFF" d="M 32.555 34.261 C 32.555 37.692 34.405 40.473 32.471 40.473 C 30.537 40.473 28.971 37.692 28.971 34.261 C 28.971 30.831 30.537 28.05 32.471 28.05 C 34.405 28.05 32.555 30.832 32.555 34.261 Z " stroke-width="1"/>
    </g>
    <g id="Stem">
      <path id="Fill" fill="#99661D" d="M 49.515 20.766 C 49.886 20.7 50.488 20.636 50.863 20.547 C 50.925 15.72 51.401 10.899 49.239 6.335 C 48.647 5.082 47.909 3.981 47.175 2.853 C 46.155 3.464 45.137 4.076 44.116 4.686 C 48.31 8.982 49.773 14.618 49.515 20.766 Z " stroke-width="1"/>
      <path id="Outline" fill="#231F20" d="M 48.602 0.6 C 48.209 0.077 47.524 -0.182 46.944 0.165 C 45.139 1.249 43.337 2.333 41.53 3.417 C 40.893 3.8 40.692 4.788 41.288 5.315 C 44.765 8.406 45.905 11.356 46.188 11.872 C 46.78 12.953 47.78 16.406 47.75 19.621 L 47.796 21.23 C 49.275 21.792 53.046 20.668 53.046 20.668 C 53.067 20.314 53.297 18.438 53.297 18.438 C 53.466 17.677 54.13 7.958 48.602 0.6 Z M 50.755 20.38 L 49.646 20.521 L 49.646 19.369 C 49.696 13.655 48.078 8.744 44.116 4.686 C 45.137 4.076 46.155 3.464 47.175 2.853 C 47.909 3.981 48.647 5.082 49.239 6.335 C 51.251 10.582 50.873 14.71 50.761 19.152 L 50.755 20.38 Z " stroke-width="1"/>
    </g>
  </g>
  <path id="ID0.3538172612898052" fill="#FFFF00" stroke="#666666" stroke-width="2" stroke-linecap="round" d="M 90 4 C 88.002 4 86.01 4.641 84 5 C 83.497 5.09 83 5 83 5 C 86 5 77.95 9.6 74 12 C 72.95 12.6 72 13.35 71 14 C 70.35 14.35 69.55 14.55 69 15 C 68.2 15.55 67.45 16.15 67 17 C 66.45 17.9 65.7 19.4 66 20 C 66.2 20.4 67.25 19.15 68 19 C 68.6 18.8 69.6 18.4 70 19 C 70.55 19.8 70 21 70 22 C 70 22.65 70.35 23.4 70 24 C 69.55 24.6 68.65 24.65 68 25 C 67.3 25.3 66.65 25.7 66 26 C 64.35 26.7 62.05 27.25 61 28 C 60.55 28.25 63.15 27.8 63 28 C 62.75 28.2 61 28.7 60 29 C 57.35 29.7 54.6 30.2 52 31 C 48.95 31.85 45.95 33 43 34 C 42 34.3 41 34.8 40 35 C 39 35.15 37.95 35 37 35 C 36.3 35 35 35 35 35 C 35 35 36.3 35 37 35 C 37.65 35 38.3 35 39 35 C 39.65 35 40.3 35 41 35 C 41.65 35 42.35 34.8 43 35 C 43.7 35.15 45.15 35.3 45 36 C 44.65 37.3 43.15 38.2 42 39 C 41.1 39.55 39.9 39.5 39 40 C 37.9 40.5 36.9 41.2 36 42 C 35.25 42.55 34.8 43.5 34 44 C 33.05 44.5 31.9 44.5 31 45 C 29.9 45.5 29 46.35 28 47 C 27.35 47.35 26.65 47.65 26 48 C 25.3 48.3 24.65 48.65 24 49 C 23.3 49.3 22.55 49.5 22 50 C 20.85 50.85 19.95 52 19 53 C 18 53.95 17.05 55.05 16 56 C 15.05 56.75 13.95 57.3 13 58 C 11.6 58.95 10.35 60 9 61 C 8 61.65 6.9 62.2 6 63 C 5.25 63.55 4.65 64.3 4 65 C 3.3 65.65 1.8 67.45 2 67 C 2.25 66.15 3.45 63.2 5 62 C 6.95 60.4 9.6 59.85 12 59 C 13.25 58.5 14.6 58.2 16 58 C 16.65 57.85 17.35 58.2 18 58 C 19.4 57.5 20.7 56.7 22 56 C 23 55.4 23.95 54.6 25 54 C 26.6 52.95 28.3 51.95 30 51 C 31.65 50 33.3 48.95 35 48 C 35.6 47.6 36.4 47.4 37 47 C 37.75 46.4 38.15 45.45 39 45 C 39.9 44.45 41.15 44.6 42 44 C 42.55 43.55 42.35 42.4 43 42 C 43.55 41.6 44.3 42 45 42 C 45.65 42 46.35 42.15 47 42 C 47.7 41.8 48.3 41.3 49 41 C 49.65 40.65 50.3 40.3 51 40 C 51.65 39.65 52.4 39.45 53 39 C 54.1 38.1 54.75 36.7 56 36 C 56.55 35.65 57.4 36.25 58 36 C 58.8 35.55 59.2 34.55 60 34 C 60.55 33.55 61.3 33.3 62 33 C 62.65 32.65 63.25 32.1 64 32 C 66.6 31.45 69.35 31.5 72 31 C 72.7 30.85 73.25 30.15 74 30 C 74.6 29.8 75.5 30.45 76 30 C 76.45 29.5 75.75 28.6 76 28 C 76.45 26.55 77.15 25.2 78 24 C 79.15 22.2 80.85 20.8 82 19 C 82.55 18.1 82.6 16.95 83 16 C 83.25 15.3 83.65 14.65 84 14 C 84.3 13.3 84.8 12.7 85 12 C 85.15 11.35 84.8 10.6 85 10 C 85.15 9.25 85.5 8.55 86 8 C 86.85 6.85 88.1 6.1 89 5 C 89.45 4.4 89.654 3.654 90 3 C 90.058 2.808 90.25 2.917 90 3 Z "/>
</svg>