<svg xmlns="http://www.w3.org/2000/svg" xmlns:xlink="http://www.w3.org/1999/xlink" version="1.1" width="84.1259994506836" height="91.6259994506836" viewBox="0.009000003337860107 -0.4570002555847168 84.1259994506836 91.6259994506836">
  <!-- Exported by Scratch - http://scratch.mit.edu/ -->
  <g id="Layer_2">
    <path id="ID0.14311734773218632" fill="#FF4FA3" d="M 73.01 7.043 C 75.214 1.868 73.135 0.043 76.51 0.043 C 76.51 0.043 78.76 2.357 78.76 7.543 C 78.76 10.389 72.885 17.293 74.885 17.293 C 76.885 17.293 78.01 12.668 79.635 12.668 C 81.26 12.668 83.135 11.418 83.135 15.043 C 83.135 18.668 78.135 21.418 79.26 21.418 C 80.385 21.418 83.635 18.543 83.635 23.543 C 83.635 28.543 78.322 23.114 78.635 26.918 C 79.802 41.164 79.885 83.669 79.885 83.669 L 78.51 84.669 L 78.51 90.669 L 10.26 90.669 C 10.26 90.669 10.782 83.538 8.969 83.538 C 7.156 83.538 7.885 80.169 7.885 80.169 C 7.885 80.169 9.385 56.981 7.822 56.981 C 1.884 56.981 2.509 51.668 2.509 51.668 C 2.509 51.668 2.509 40.542 2.509 36.042 C 2.509 31.542 6.509 31.667 6.509 31.667 C 6.509 31.667 6.509 30.542 6.509 23.167 C 6.509 15.792 9.509 16.667 9.509 16.667 L 68.509 16.667 C 70.759 10.417 70.848 12.115 73.01 7.043 Z " stroke-width="1"/>
    <path id="ID0.48586778063327074" fill="#FFA4DE" d="M 7.989 78.432 C 7.989 78.432 9.385 56.981 7.821 56.981 C 1.883 56.981 2.508 51.668 2.508 51.668 C 2.508 51.668 2.508 40.542 2.508 36.042 C 2.508 31.542 6.508 31.667 6.508 31.667 C 6.508 31.667 6.508 30.542 6.508 23.167 C 6.508 15.792 9.508 16.667 9.508 16.667 C 9.508 16.667 68.008 14.946 68.508 16.667 C 71.297 26.272 75.677 75.813 74.008 78.543 " stroke-width="1"/>
    <path id="ID0.11627007275819778" fill="#CE85B7" opacity="0.3" d="M 6.509 45.667 C 6.509 35.292 11.882 33.667 18.509 33.667 L 50.509 33.667 C 57.136 33.667 62.509 39.04 62.509 45.667 L 62.509 48.668 C 62.509 55.295 57.136 60.668 50.509 60.668 L 18.509 60.668 C 11.882 60.668 6.509 59.543 6.509 48.668 L 6.509 45.667 Z " stroke-width="1"/>
    <path id="ID0.8696292019449174" d="M 0.509 42.667 C 0.509 32.292 5.882 30.667 12.509 30.667 L 44.509 30.667 C 51.136 30.667 56.509 36.04 56.509 42.667 L 56.509 45.667 C 56.509 52.295 51.136 57.668 44.509 57.668 L 12.509 57.668 C 5.882 57.668 0.509 56.543 0.509 45.667 L 0.509 42.667 Z " stroke-width="1" fill="undefined"/>
    <path id="ID0.2592000993900001" fill="#00CCFF" d="M 39.01 42.917 C 39.01 46.167 35.383 50.418 31.697 50.418 C 28.009 50.418 26.634 47.292 26.634 46.042 C 26.634 44.792 35.384 39.167 36.759 39.167 C 36.759 39.167 39.01 39.667 39.01 42.917 Z " stroke-width="1"/>
    <path id="ID0.03983337618410587" fill="#00CCFF" d="M 24.009 46.667 C 24.009 47.543 23.009 50.418 17.759 50.418 C 12.509 50.418 10.759 44.167 10.759 43.042 C 10.759 41.917 10.759 39.167 13.009 39.167 C 14.341 39.167 24.009 45.792 24.009 46.667 Z " stroke-width="1"/>
  </g>
</svg>