<svg xmlns="http://www.w3.org/2000/svg" xmlns:xlink="http://www.w3.org/1999/xlink" version="1.1" width="88.73753810594644" height="70.2573287553605" viewBox="12.555300351628834 10.088094350347095 88.73753810594644 70.2573287553605">
  <!-- Exported by Scratch - http://scratch.mit.edu/ -->
  <g id="ID0.5701378411613405">
    <path id="ID0.8972083395346999" fill="#A85B00" stroke="none" stroke-linecap="round" d="M 65.794 17.8124 C 77.4144 22.5287 87.0247 29.068 93.1638 35.8228 C 99.3028 42.5777 101.5735 48.6023 99.7066 55.1261 C 97.1681 63.9788 89.6661 72.3191 80.9422 75.9077 C 71.2464 80.1856 59.1476 80.5713 48.9123 76.8176 C 37.0105 72.4509 25.4906 63.979 19.1114 53.1246 C 13.4264 43.8213 11.798 30.9146 15.4688 20.9366 C 17.8146 14.569 24.5038 12.219 33.614 11.6534 C 42.7242 11.0878 54.1736 13.096 65.794 17.8124 Z " stroke-width="0.6910801836969137"/>
    <path id="ID0.10735392430797219" fill="#EF9300" stroke="#EAC28E" stroke-width="1.9026992387589352" stroke-linecap="round" d="M 65.9956 17.8923 C 77.0685 22.3865 86.3776 28.2419 92.474 34.071 C 98.5701 39.9007 101.4528 45.7038 99.6709 50.094 C 97.889 54.4843 91.7774 56.6368 83.3427 56.569 C 74.9083 56.5005 64.1516 54.2117 53.0787 49.7176 C 42.0058 45.2235 32.6966 39.368 26.6003 33.5389 C 20.5041 27.7092 17.6215 21.9061 19.4033 17.5159 C 21.1852 13.1257 27.2968 10.9731 35.7315 11.041 C 44.1659 11.1095 54.9227 13.3982 65.9956 17.8923 Z "/>
    <path id="ID0.4141157087869942" fill="none" stroke="#EAC28E" stroke-width="1.378791351498305" stroke-linecap="round" d="M 63.4428 17.6404 C 63.4428 17.6404 59.1379 30.2482 55.3633 35.6174 C 52.5718 39.5882 44.2088 44.9999 44.2088 44.9999 "/>
    <path id="ID0.011384283192455769" fill="none" stroke="#EAC28E" stroke-width="1.378791351498305" stroke-linecap="round" d="M 56.905 32.7377 L 92.201 34.3469 "/>
    <path id="ID0.8657065210863948" fill="none" stroke="#EAC28E" stroke-width="1.378791351498305" stroke-linecap="round" d="M 77.3349 55.7225 C 77.3349 55.7225 56.6321 33.4101 56.6321 33.4101 L 22.2258 14.4486 "/>
    <path id="ID0.9600630304776132" fill="none" stroke="#EAC28E" stroke-width="1.378791351498305" stroke-linecap="round" d="M 55.3194 32.8773 L 26.2103 32.2876 "/>
    <path id="ID0.13748089503496885" fill="none" stroke="#EAC28E" stroke-width="1.378791351498305" stroke-linecap="round" d="M 55.7189 33.8226 L 41.5998 11.46 "/>
    <path id="ID0.14989860635250807" fill="none" stroke="#EAC28E" stroke-width="1.378791351498305" stroke-linecap="round" d="M 56.5815 34.5456 L 98.6241 50.8635 "/>
  </g>
</svg>