<svg xmlns="http://www.w3.org/2000/svg" xmlns:xlink="http://www.w3.org/1999/xlink" version="1.1" width="84.10067509659699" height="86.94937657364777" viewBox="0.021662180381162688 0.10346222396407895 84.10067509659699 86.94937657364777">
  <!-- Exported by Scratch - http://scratch.mit.edu/ -->
  <g id="ID0.47693972568959">
    <path id="ID0.29204709688201547" fill="#FF4FA3" d="M 15.635 16.3616 L 74.635 16.3616 C 74.635 16.3616 77.635 15.5315 77.635 22.528 C 77.635 29.5244 77.635 30.5917 77.635 30.5917 C 77.635 30.5917 81.635 30.4731 81.635 34.7422 C 81.635 39.0112 81.635 49.5662 81.635 49.5662 C 81.635 49.5662 82.26 54.6065 76.322 54.6065 C 74.759 54.6065 76.259 76.6044 76.259 76.6044 C 76.259 76.6044 76.988 79.8005 75.175 79.8005 C 73.362 79.8005 73.884 86.5655 73.884 86.5655 L 5.634 86.5655 L 5.634 80.8734 L 4.259 79.9247 C 4.259 79.9247 4.342 39.6013 5.509 26.0864 C 5.822 22.4777 0.509 27.628 0.509 22.8847 C 0.509 18.1413 3.759 20.8687 4.884 20.8687 C 6.009 20.8687 1.009 18.2599 1.009 14.8209 C 1.009 11.382 2.884 12.5678 4.509 12.5678 C 6.134 12.5678 7.259 16.9554 9.259 16.9554 C 11.259 16.9554 5.384 10.4058 5.384 7.7059 C 5.384 2.786 7.634 0.5908 7.634 0.5908 C 11.009 0.5908 8.929 2.3221 11.134 7.2315 C 13.296 12.0432 13.385 10.4324 15.635 16.3616 Z " stroke-width="0.9746756459133948"/>
    <path id="ID0.19896423257887363" fill="#FFA4DE" d="M 10.135 75.0618 C 8.466 72.4719 12.845 25.4736 15.635 16.3616 C 16.135 14.7289 74.635 16.3616 74.635 16.3616 C 74.635 16.3616 77.635 15.5315 77.635 22.528 C 77.635 29.5244 77.635 30.5917 77.635 30.5917 C 77.635 30.5917 81.635 30.4731 81.635 34.7422 C 81.635 39.0112 81.635 49.5662 81.635 49.5662 C 81.635 49.5662 82.26 54.6065 76.322 54.6065 C 74.759 54.6065 76.154 74.9565 76.154 74.9565 " stroke-width="0.9746756459133948"/>
    <path id="ID0.4092942951247096" fill="#CE85B7" opacity="0.3" d="M 77.635 46.7201 C 77.635 57.037 72.262 58.1042 65.635 58.1042 L 33.635 58.1042 C 27.008 58.1042 21.635 53.007 21.635 46.7201 L 21.635 43.8732 C 21.635 37.5863 27.008 32.4891 33.635 32.4891 L 65.635 32.4891 C 72.262 32.4891 77.635 34.0307 77.635 43.8732 L 77.635 46.7201 Z " stroke-width="0.9746756459133948"/>
    <path id="ID0.713367042131722" d="M 83.635 43.8732 C 83.635 54.191 78.262 55.2582 71.635 55.2582 L 39.635 55.2582 C 33.008 55.2582 27.635 50.161 27.635 43.8732 L 27.635 41.0271 C 27.635 34.7403 33.008 29.643 39.635 29.643 L 71.635 29.643 C 78.262 29.643 83.635 31.1846 83.635 41.0271 L 83.635 43.8732 Z " stroke-width="0.9746756459133948" fill="undefined"/>
  </g>
</svg>