<svg xmlns="http://www.w3.org/2000/svg" xmlns:xlink="http://www.w3.org/1999/xlink" version="1.1" width="84.10067509659699" height="86.94937657364777" viewBox="0.021662180381162688 0.10346222396407895 84.10067509659699 86.94937657364777">
  <!-- Exported by Scratch - http://scratch.mit.edu/ -->
  <g id="Layer_2">
    <path id="ID0.23059094371274114" fill="#FF4FA3" d="M 73.01 7.2315 C 75.214 2.3221 73.135 0.5908 76.51 0.5908 C 76.51 0.5908 78.76 2.786 78.76 7.7059 C 78.76 10.4058 72.885 16.9554 74.885 16.9554 C 76.885 16.9554 78.01 12.5678 79.635 12.5678 C 81.26 12.5678 83.135 11.382 83.135 14.8209 C 83.135 18.2599 78.135 20.8687 79.26 20.8687 C 80.385 20.8687 83.635 18.1413 83.635 22.8847 C 83.635 27.628 78.322 22.4777 78.635 26.0864 C 79.802 39.6013 79.885 79.9247 79.885 79.9247 L 78.51 80.8734 L 78.51 86.5655 L 10.26 86.5655 C 10.26 86.5655 10.782 79.8005 8.969 79.8005 C 7.156 79.8005 7.885 76.6044 7.885 76.6044 C 7.885 76.6044 9.385 54.6065 7.822 54.6065 C 1.884 54.6065 2.509 49.5662 2.509 49.5662 C 2.509 49.5662 2.509 39.0112 2.509 34.7422 C 2.509 30.4731 6.509 30.5917 6.509 30.5917 C 6.509 30.5917 6.509 29.5244 6.509 22.528 C 6.509 15.5315 9.509 16.3616 9.509 16.3616 L 68.509 16.3616 C 70.759 10.4324 70.848 12.0432 73.01 7.2315 Z " stroke-width="0.9746756459133948"/>
    <path id="ID0.15251143649220467" fill="#FFA4DE" d="M 7.989 74.9565 C 7.989 74.9565 9.385 54.6065 7.821 54.6065 C 1.883 54.6065 2.508 49.5662 2.508 49.5662 C 2.508 49.5662 2.508 39.0112 2.508 34.7422 C 2.508 30.4731 6.508 30.5917 6.508 30.5917 C 6.508 30.5917 6.508 29.5244 6.508 22.528 C 6.508 15.5315 9.508 16.3616 9.508 16.3616 C 9.508 16.3616 68.008 14.7289 68.508 16.3616 C 71.297 25.4736 75.677 72.4719 74.008 75.0618 " stroke-width="0.9746756459133948"/>
    <path id="ID0.27083897311240435" fill="#CE85B7" opacity="0.3" d="M 6.509 43.8732 C 6.509 34.0307 11.882 32.4891 18.509 32.4891 L 50.509 32.4891 C 57.136 32.4891 62.509 37.5863 62.509 43.8732 L 62.509 46.7201 C 62.509 53.007 57.136 58.1042 50.509 58.1042 L 18.509 58.1042 C 11.882 58.1042 6.509 57.037 6.509 46.7201 L 6.509 43.8732 Z " stroke-width="0.9746756459133948"/>
    <path id="ID0.3077529789879918" d="M 0.509 41.0271 C 0.509 31.1846 5.882 29.643 12.509 29.643 L 44.509 29.643 C 51.136 29.643 56.509 34.7403 56.509 41.0271 L 56.509 43.8732 C 56.509 50.161 51.136 55.2582 44.509 55.2582 L 12.509 55.2582 C 5.882 55.2582 0.509 54.191 0.509 43.8732 L 0.509 41.0271 Z " stroke-width="0.9746756459133948" fill="undefined"/>
  </g>
</svg>