<svg xmlns="http://www.w3.org/2000/svg" xmlns:xlink="http://www.w3.org/1999/xlink" version="1.1" width="116.8894071882782" height="113.19052413163757" viewBox="-0.519704357078551 0.32917968899917727 116.8894071882782 113.19052413163757">
  <!-- Exported by Scratch - http://scratch.mit.edu/ -->
  <path id="ID0.16309713292866945" fill="#CA7B16" d="M 24.85 0.85 L 93.85 0.85 C 93.85 0.85 115.85 0.35 115.85 20.517 C 115.85 40.684 115.85 94.85 115.85 94.85 C 115.85 94.85 113.85 112.85 96.017 112.85 C 78.184 112.85 24.85 112.85 24.85 112.85 C 24.85 112.85 2.85 111.684 2.85 95.017 C 2.85 78.35 2.85 17.85 2.85 17.85 C 2.85 17.85 4.683 0.85 24.85 0.85 Z " stroke-width="1"/>
  <path id="ID0.16309713292866945" fill="#FBA31A" d="M 22 1 L 91 1 C 91 1 113 0.5 113 20.667 C 113 40.834 113 95 113 95 C 113 95 111 113 93.167 113 C 75.334 113 22 113 22 113 C 22 113 0 111.834 0 95.167 C 0 78.5 0 18 0 18 C 0 18 1.833 1 22 1 Z " stroke-width="1"/>
  <path id="ID0.9866175805218518" fill="#CA7B16" d="M 24.92 8.1 L 85.779 8.1 C 85.779 8.1 104.849 7.266 104.849 25.053 C 104.849 42.84 104.849 90.616 104.849 90.616 C 104.849 90.616 103.42 106.1 87.691 106.1 C 71.962 106.1 24.92 106.1 24.92 106.1 C 24.92 106.1 5.85 105.464 5.85 90.764 C 5.85 76.063 5.85 22.701 5.85 22.701 C 5.85 22.701 7.133 8.1 24.92 8.1 Z " stroke-width="1"/>
  <path id="ID0.9866175805218518" fill="#090C0E" d="M 27.32 8 L 88.179 8 C 88.179 8 107.249 7.166 107.249 24.953 C 107.249 42.74 107.249 90.516 107.249 90.516 C 107.249 90.516 105.82 106 90.091 106 C 74.362 106 27.32 106 27.32 106 C 27.32 106 8.25 105.364 8.25 90.664 C 8.25 75.963 8.25 22.601 8.25 22.601 C 8.25 22.601 9.533 8 27.32 8 Z " stroke-width="1"/>
  <path id="ID0.2384824506007135" fill="#B28D21" d="M 41.5722 24.0652 C 41.5722 24.0652 41.9238 20.8265 45.2679 22.5313 C 48.6119 24.236 87.8568 54.5738 88.9127 55.5964 C 89.9686 56.6191 89.0891 57.9822 88.0332 59.1757 C 86.9772 60.3691 47.556 89.6842 45.9721 90.7069 C 44.3883 91.7295 42.4528 94.1164 41.5722 87.8097 C 40.6916 81.5031 36.9969 60.3691 41.5722 24.0652 Z " stroke-width="1.039408714157102"/>
  <path id="ID0.2384824506007135" fill="#F2C62C" d="M 40.833 24.667 C 40.833 24.667 41.166 21.5 44.333 23.167 C 47.5 24.834 84.667 54.5 85.667 55.5 C 86.667 56.5 85.834 57.833 84.834 59 C 83.834 60.167 46.5 88.833 45 89.833 C 43.5 90.833 41.667 93.167 40.833 87 C 39.999 80.833 36.5 60.167 40.833 24.667 Z " stroke-width="1"/>
</svg>