<svg xmlns="http://www.w3.org/2000/svg" xmlns:xlink="http://www.w3.org/1999/xlink" version="1.1" width="79.07881164550781" height="98.61824798583984" viewBox="-0.3568267822265625 1.389120101928711 79.07881164550781 98.61824798583984">
  <!-- Exported by Scratch - http://scratch.mit.edu/ -->
  <g id="ID0.990735765080899">
    <path id="ID0.23450724128633738" fill="#272525" d="M 49.3071 33.6127 C 49.4109 32.1749 50.0753 26.0978 51.0544 21.973 L 56.4585 19.6426 C 59.4104 22.6014 60.5936 29.4133 55.4957 35.342 C 57.5302 36.0716 60.0603 39.7309 59.1395 43.8077 C 57.3784 51.5867 55.0018 58.2965 58.5702 66.481 C 61.4167 73.0082 69.7324 76.3357 74.7351 81.924 C 80.8491 88.7556 76.7174 91.4975 70.0659 91.6227 C 53.4362 91.9382 41.5247 84.0889 36.1524 73.6307 C 29.5601 60.7958 32.8069 35.7115 49.3071 33.6127 L 49.3071 33.6127 Z " stroke-width="0.8573749661445618"/>
    <path id="ID0.006342989392578602" fill="#FFF63B" d="M 54.2139 21.119 C 55.8986 22.1479 57.8894 24.5176 57.7308 26.5445 C 57.2704 27.0889 53.077 35.8127 54.5388 36.562 C 58.2461 38.4646 52.7452 52.805 54.8029 61.9241 C 57.6605 74.5781 68.6058 77.4503 72.9664 84.6325 C 75.3507 88.5593 71.009 89.6027 69.6972 89.5804 C 49.7624 89.2769 41.7073 78.4654 38.451 71.7719 C 34.1736 62.9855 36.7997 52.2383 40.4693 43.722 C 41.1998 42.0278 43.1855 38.7989 44.6199 37.554 C 46.8413 35.6258 47.3977 35.4698 50.2948 35.2528 C 50.7707 35.2177 54.2139 21.119 54.2139 21.119 L 54.2139 21.119 Z " stroke-width="0.8573749661445618"/>
    <path id="ID0.5267163878306746" fill="#272525" d="M 50.7655 38.3445 C 50.9576 37.7298 51.8149 37.9793 51.664 38.4783 C 46.4486 55.8761 48.6538 72.2177 60.5645 80.8746 C 63.0903 82.7128 67.9842 84.822 69.1554 85.2112 C 70.3265 85.6005 69.3826 86.3584 68.3297 85.982 C 67.276 85.6065 66.4306 85.3047 64.9268 84.6196 C 51.9881 78.7406 41.1886 69.2709 50.7655 38.3445 L 50.7655 38.3445 Z " stroke-width="0.8573749661445618"/>
    <path id="ID0.8533078269101679" fill="#272525" d="M 47.2246 30.6462 C 48.1454 28.6579 54.045 17.1494 55.8746 17.3894 C 60.9168 18.0513 63.4444 30.0323 51.9144 34.3989 L 51.2456 33.8716 C 53.4139 33.683 55.6714 39.1222 52.8232 43.4485 C 48.394 50.1814 43.765 55.7064 44.1972 64.5682 C 44.5427 71.633 51.1685 77.4854 53.8752 84.377 C 57.183 92.799 52.3216 94.0216 46.0277 91.9613 C 30.2888 86.8051 21.896 75.5255 20.5799 63.938 C 18.9663 49.7159 30.9704 27.2107 47.2246 30.6462 L 47.2246 30.6462 Z " stroke-width="0.8573749661445618"/>
    <path id="ID0.19106093607842922" fill="#FFF63B" d="M 56.2964 20.5146 C 58.2092 21.3419 59.5648 23.2504 57.6631 26.7648 C 56.4756 28.9614 49.981 33.9453 51.087 35.1302 C 53.8924 38.1336 43.6039 49.8076 42.2844 59.0527 C 40.4522 71.8799 49.7109 78.1662 51.2448 86.3447 C 52.0842 90.8159 47.6327 90.3718 46.4049 89.9234 C 27.7819 83.1029 24.0729 70.304 23.3998 62.946 C 22.5167 53.2869 28.8193 44.0486 35.3079 37.2497 C 36.5983 35.8976 39.6162 33.5141 41.409 32.8145 C 44.186 31.7307 44.096 29.9894 46.8953 30.7345 C 47.3583 30.8571 56.2964 20.5146 56.2964 20.5146 L 56.2964 20.5146 Z " stroke-width="0.8573749661445618"/>
    <path id="ID0.6718006273731589" fill="#272525" d="M 46.9056 35.5709 C 47.3043 35.0556 48.0211 35.5709 47.7038 35.991 C 36.594 50.6299 32.8318 66.7082 40.934 78.7483 C 42.653 81.3024 46.4975 84.8888 47.4569 85.6373 C 48.418 86.3858 46.9648 87.5047 46.1091 86.8051 C 45.2543 86.108 44.0008 85.1649 42.8322 84.0298 C 32.7726 74.2634 26.8688 61.4919 46.9056 35.5709 L 46.9056 35.5709 Z " stroke-width="0.8573749661445618"/>
    <path id="ID0.33484075916931033" fill="#272525" d="M 43.4144 26.2607 C 45.202 24.9206 56.0478 17.4126 57.5448 18.4474 C 61.6722 21.2999 57.6605 33.3632 45.34 32.0325 L 45.3846 30.9179 C 47.3926 31.7265 46.7204 37.5446 42.0855 40.0841 C 34.8758 44.0366 29.1802 47.455 25.2226 55.4749 C 22.0666 61.8692 23.9494 69.3926 22.9643 76.6966 C 21.7597 85.621 14.6306 83.4913 10.0831 78.8392 C -1.2883 67.2063 -0.9359 54.4906 3.5799 43.668 C 9.1211 30.3847 30.7458 15.9139 43.4144 26.2607 L 43.4144 26.2607 Z " stroke-width="0.8573749661445618"/>
    <path id="ID0.7287357193417847" fill="#FFF63B" d="M 56.3882 21.3951 C 56.7783 23.271 56.2124 26.2881 54.5328 27.5305 C 52.9844 28.6759 47.7707 30.8108 44.7433 31.0397 C 45.749 34.9536 30.8315 41.5503 25.1369 49.1174 C 17.2353 59.6194 22.3298 69.3361 19.6788 77.2488 C 18.2298 81.5742 14.5166 79.1796 13.6532 78.2313 C 0.5499 63.8317 3.5456 50.8605 6.5558 44.0615 C 10.5075 35.1354 20.5979 29.8154 29.6578 26.7297 C 31.46 26.1158 35.2925 25.3699 37.2181 25.5585 C 40.2001 25.85 40.6931 26.1415 42.8005 28.0595 C 43.1495 28.3767 56.0589 19.8149 56.3882 21.3951 L 56.3882 21.3951 Z " stroke-width="0.8573749661445618"/>
    <path id="ID0.7101516453549266" fill="#272525" d="M 40.7205 30.4661 C 41.325 30.19 41.7031 30.9677 41.2186 31.1949 C 24.2375 39.1222 13.0393 51.627 14.2954 65.9014 C 14.562 68.9288 16.1996 73.8279 16.6814 74.921 C 17.1633 76.0142 15.9441 75.8504 15.53 74.849 C 15.1167 73.8476 14.7866 73.0451 14.3099 71.5138 C 10.2134 58.3651 10.3291 44.3393 40.7205 30.4661 L 40.7205 30.4661 Z " stroke-width="0.8573749661445618"/>
  </g>
  <path id="ID0.4090445623733103" fill="#FF9400" stroke="#7F7F7F" stroke-width="2" stroke-linecap="round" d="M 3 5 C 6.331 8.328 8.31 13.844 11 19 C 12.325 21.54 14.377 23.639 16 26 C 18.041 28.968 19.881 32.087 22 35 C 22.554 35.762 23.435 36.247 24 37 C 24.447 37.596 25.264 38.472 25 39 C 24.764 39.472 23.666 39 23 39 C 22.334 39 21.666 39 21 39 C 20.001 39 18 38.878 18 39 C 18 39.122 20.022 39.609 21 40 C 21.691 40.277 22.404 40.553 23 41 C 23.753 41.565 24.247 42.435 25 43 C 25.596 43.447 26.473 43.473 27 44 C 27.849 44.849 28.151 46.151 29 47 C 29.527 47.527 30.404 47.553 31 48 C 31.753 48.565 32.334 49.334 33 50 C 33.666 50.666 34.247 51.435 35 52 C 35.596 52.447 36.404 52.553 37 53 C 37.753 53.565 38.265 54.412 39 55 C 39.938 55.75 42 56.545 42 57 C 42 57.454 39.999 57 39 57 C 38.334 57 37.666 57 37 57 C 36.334 57 35.646 57.162 35 57 C 34.278 56.819 32.555 55.555 33 56 C 34.555 57.555 37.043 59.287 39 61 C 39.709 61.62 40.265 62.412 41 63 C 41.938 63.75 43.062 64.25 44 65 C 44.735 65.588 45.515 66.192 46 67 C 46.542 67.903 46.368 69.158 47 70 C 47.447 70.596 48.334 70.667 49 71 C 49.666 71.333 50.473 71.473 51 72 C 51.849 72.849 52.404 73.958 53 75 C 53.739 76.293 54.106 77.809 55 79 C 57.124 81.832 59.789 84.236 62 87 C 62.553 87.691 62.617 88.362 63 89 C 63.618 90.03 64.382 90.97 65 92 C 65.383 92.638 65.667 93.334 66 94 C 66.333 94.666 66.473 95.473 67 96 C 67.527 96.527 68.587 96.38 69 97 C 69.369 97.554 69.638 99.128 69 99 C 67.138 98.628 65.492 97.243 64 96 C 63.428 95.523 63.465 94.581 63 94 C 62.117 92.897 61.103 91.883 60 91 C 59.419 90.535 58.527 90.527 58 90 C 57.473 89.473 57.383 88.638 57 88 C 56.382 86.97 55.618 86.03 55 85 C 54.617 84.362 54.383 83.638 54 83 C 53.382 81.97 52.666 80.999 52 80 C 51.334 79.001 50.849 77.849 50 77 C 49.473 76.473 48.527 76.527 48 76 C 47.473 75.473 47.447 74.596 47 74 C 46.435 73.247 45.588 72.735 45 72 C 44.25 71.062 43.75 69.938 43 69 C 42.412 68.265 41.666 67.666 41 67 C 40.334 66.334 39.753 65.565 39 65 C 38.404 64.553 37.527 64.527 37 64 C 36.473 63.473 36.527 62.527 36 62 C 35.473 61.473 34.691 61.277 34 61 C 33.022 60.609 31.942 60.471 31 60 C 29.926 59.463 29.115 58.446 28 58 C 27.382 57.753 26.554 58.369 26 58 C 25.38 57.587 24.736 56.528 25 56 C 25.236 55.528 27.16 56.481 27 56 C 26.66 54.981 25.073 53.919 24 53 C 22.736 51.916 21.385 50.924 20 50 C 19.38 49.587 18.527 49.527 18 49 C 17.473 48.473 17.596 47.447 17 47 C 16.158 46.368 14.903 46.542 14 46 C 13.192 45.515 12.666 44.666 12 44 C 11.334 43.334 10.753 42.565 10 42 C 9.404 41.553 8.596 41.447 8 41 C 7.247 40.435 6.666 39.666 6 39 C 5.334 38.334 4.565 37.753 4 37 C 3.553 36.404 2.736 35.528 3 35 C 3.236 34.528 4.334 35 5 35 C 5.999 35 7.02 34.804 8 35 C 8.73 35.146 9.334 35.667 10 36 C 10.666 36.333 11.472 37.264 12 37 C 12.472 36.764 12.162 35.646 12 35 C 11.819 34.278 11.181 33.722 11 33 C 10.838 32.354 11.162 31.646 11 31 C 10.819 30.278 10.277 29.691 10 29 C 9.609 28.022 9.391 26.978 9 26 C 8.723 25.309 8.181 24.722 8 24 C 7.838 23.354 8.162 22.646 8 22 C 7.819 21.278 7.333 20.666 7 20 C 6.667 19.334 6.181 18.722 6 18 C 5.838 17.354 6 16.666 6 16 C 6 15.334 6.162 14.646 6 14 C 5.819 13.278 5.181 12.722 5 12 C 4.838 11.354 5.471 10.471 5 10 C 4.529 9.529 3.554 10.369 3 10 C 2.38 9.587 2.181 8.722 2 8 C 1.838 7.354 2 6.666 2 6 C 2 5.334 1.631 4.554 2 4 C 2.413 3.38 3.334 3.333 4 3 C 4.167 2.917 3.417 1.668 4 3 Z "/>
</svg>