<svg xmlns="http://www.w3.org/2000/svg" xmlns:xlink="http://www.w3.org/1999/xlink" version="1.1" width="91.73099517822266" height="91.45199584960938" viewBox="0.34400004148483276 0.218999981880188 91.73099517822266 91.45199584960938">
  <!-- Exported by Scratch - http://scratch.mit.edu/ -->
  <g id="ID0.2371558202430606">
    <path id="ID0.17894358187913895" fill="#B98EFF" d="M 44.674 9.094 L 63.657 0.719 L 71.475 19.981 L 91.575 28.078 L 82.362 46.224 L 91.575 66.045 L 71.194 72.466 L 63.657 91.171 L 46.07 84.191 L 27.086 91.171 L 19.548 74.42 L 0.844 64.648 L 7.544 48.178 L 0.844 28.636 L 18.153 21.656 L 26.249 2.673 L 44.674 9.094 " stroke-width="1"/>
    <path id="ID0.9726488678716123" fill="#9552FF" d="M 44.667 12.499 C 54.093 12.499 62.635 16.328 68.82 22.513 C 75.005 28.698 78.834 37.24 78.834 46.666 C 78.834 56.092 75.005 64.634 68.82 70.819 C 62.635 77.004 54.093 80.833 44.667 80.833 C 35.241 80.833 26.699 77.004 20.514 70.819 C 14.329 64.634 10.5 56.092 10.5 46.666 C 10.5 37.24 14.329 28.698 20.514 22.513 C 26.699 16.328 35.241 12.499 44.667 12.499 Z " stroke-width="1"/>
    <path id="ID0.5042385119013488" d="M 45.167 36.5 C 47.88 36.5 50.338 37.602 52.118 39.382 C 53.898 41.162 55 43.62 55 46.333 C 55 49.046 53.898 51.504 52.118 53.284 C 50.338 55.064 47.88 56.166 45.167 56.166 C 42.454 56.166 39.996 55.064 38.216 53.284 C 36.436 51.504 35.334 49.046 35.334 46.333 C 35.334 43.62 36.436 41.162 38.216 39.382 C 39.996 37.602 42.454 36.5 45.167 36.5 Z " stroke-width="1" fill="undefined"/>
  </g>
</svg>